<?xml version="1.0" encoding="UTF-8" standalone="no"?>
<!-- Created with Inkscape (http://www.inkscape.org/) -->

<svg
   width="209.9863mm"
   height="168.31831mm"
   viewBox="0 0 209.9863 168.31831"
   version="1.1"
   id="svg1"
   xml:space="preserve"
   inkscape:version="1.3.1 (9b9bdc1480, 2023-11-25, custom)"
   sodipodi:docname="logo_final.svg"
   xmlns:inkscape="http://www.inkscape.org/namespaces/inkscape"
   xmlns:sodipodi="http://sodipodi.sourceforge.net/DTD/sodipodi-0.dtd"
   xmlns="http://www.w3.org/2000/svg"
   xmlns:svg="http://www.w3.org/2000/svg"><sodipodi:namedview
     id="namedview1"
     pagecolor="#ffffff"
     bordercolor="#000000"
     borderopacity="0.25"
     inkscape:showpageshadow="2"
     inkscape:pageopacity="0.0"
     inkscape:pagecheckerboard="0"
     inkscape:deskcolor="#d1d1d1"
     inkscape:document-units="mm"
     inkscape:zoom="1.0557146"
     inkscape:cx="382.67918"
     inkscape:cy="253.85649"
     inkscape:window-width="1854"
     inkscape:window-height="1011"
     inkscape:window-x="0"
     inkscape:window-y="0"
     inkscape:window-maximized="1"
     inkscape:current-layer="g1"><inkscape:page
       x="0"
       y="0"
       width="209.9863"
       height="168.31831"
       id="page1"
       margin="0"
       bleed="0" /></sodipodi:namedview><defs
     id="defs1"><rect
       x="252.37263"
       y="197.4568"
       width="342.68005"
       height="222.30727"
       id="rect143" /><radialGradient
       fx="0"
       fy="0"
       cx="0"
       cy="0"
       r="1"
       gradientUnits="userSpaceOnUse"
       gradientTransform="matrix(4005,0,0,-4005,4010,4000)"
       spreadMethod="pad"
       id="radialGradient3"><stop
         style="stop-opacity:1;stop-color:#ffffff"
         offset="0"
         id="stop2" /><stop
         style="stop-opacity:1;stop-color:#e9e9e9"
         offset="1"
         id="stop3" /></radialGradient><clipPath
       clipPathUnits="userSpaceOnUse"
       id="clipPath3"><path
         d="M 8020,0 H 0 V 8000 H 8020 V 0 M 3969.94,6565 v -70 h 20 v 70 h 49.99 v 15.42 H 5529.58 V 8000 h -2960 V 6580.42 H 3924.94 V 6565 h 45"
         transform="translate(0,2.5000001e-4)"
         id="path3" /></clipPath><clipPath
       clipPathUnits="userSpaceOnUse"
       id="clipPath107"><path
         d="M 5529.58,6580.42 H 4039.93 V 6630 h -114.99 v -49.58 H 2569.58 V 8000 h 2960 V 6580.42"
         transform="matrix(3.354354e-4,0,0,-6.9386622e-4,-0.85834565,5.5586317)"
         id="path107" /></clipPath><clipPath
       clipPathUnits="userSpaceOnUse"
       id="clipPath108"><path
         d="m 3924.94,6580.42 h 114.988 v 49.5781 H 3924.94 Z"
         transform="matrix(0.00762195,0,0,-0.0140449,-29.869665,93.273617)"
         id="path108" /></clipPath><clipPath
       clipPathUnits="userSpaceOnUse"
       id="clipPath110"><path
         d="M 0,0 H 8000 V 8000 H 0 Z"
         transform="translate(0,2.5000001e-4)"
         id="path110" /></clipPath><clipPath
       clipPathUnits="userSpaceOnUse"
       id="clipPath112"><path
         d="M 0,0 H 8000 V 8000 H 0 Z"
         transform="translate(0,2.5000001e-4)"
         id="path112" /></clipPath><clipPath
       clipPathUnits="userSpaceOnUse"
       id="clipPath2"><g
         id="g142"><path
           d="M -3.351133e-6,1066.6667 H 1066.6666 V 2.8095166e-5 H -3.351133e-6 Z"
           id="path142"
           style="stroke-width:0.133333" /></g></clipPath><clipPath
       clipPathUnits="userSpaceOnUse"
       id="clipPath142"><g
         id="g143"><path
           d="M -3.351133e-6,1066.6667 H 1066.6666 V 2.8095166e-5 H -3.351133e-6 Z"
           id="path143"
           style="stroke-width:0.133333" /></g></clipPath><clipPath
       clipPathUnits="userSpaceOnUse"
       id="clipPath144"><rect
         style="fill:#e62a37;fill-opacity:1;fill-rule:evenodd;stroke-width:0.377953;paint-order:markers fill stroke"
         id="rect145"
         width="711.20062"
         height="398.63965"
         x="-724.59332"
         y="-101.5507"
         transform="rotate(9.9613152)" /></clipPath></defs><g
     inkscape:label="Calque 1"
     inkscape:groupmode="layer"
     id="layer1" /><path
     d="m -622.21156,203.50439 h 24.64 v -52.16 l 18.88,20.64 18.88,-20.64 v 52 h 24.64 V 87.664395 l -43.52,47.679995 -43.52,-47.519995 z m 101.59973,0 h 56 l 6.24,-24.96 h -37.28 v -18.56 h 24.8 l 6.24,-24.96 h -31.04 v -18.56 h 31.04 l 6.24,-24.959995 h -62.24 z m 159.19995,4.96 V 91.504395 h -24.64 v 57.279995 l -62.24,-62.239995 V 203.50439 h 24.64 v -57.28 z m 50.55982,-4.64 c 20.64,0 37.28,-16.64 37.44,-37.28 V 91.504395 h -24.8 v 75.039995 c 0,6.88 -5.6,12.64 -12.64,12.64 -6.88,0 -12.64,-5.76 -12.64,-12.64 V 91.504395 h -24.64 v 75.039995 c 0,20.64 16.8,37.28 37.28,37.28 z"
     id="text143"
     clip-path="url(#clipPath144)"
     style="font-size:160px;font-family:Hypero;-inkscape-font-specification:'Hypero, Normal';fill:#d66826;fill-rule:evenodd;stroke-width:0.377953;paint-order:markers fill stroke"
     transform="matrix(0.26458333,0,0,0.26458333,221.48639,32.891336)"
     aria-label="Menu" /><g
     id="g1"
     inkscape:groupmode="layer"
     inkscape:label="1"
     transform="matrix(0.26458332,0,0,0.26458335,220.00001,0)"><path
       id="path24"
       d="m -560.55043,222.22863 c 0.5431,1.99505 -6.774,10.56696 -17.96927,11.3412 -7.60122,0.52505 -15.29469,-0.0416 -18.9865,-0.39549 5.26707,-2.61983 18.72023,-8.97581 24.19468,-9.25245 0,0 -9.4329,-0.86816 -25.56628,7.39179 2.22996,-3.8698 8.53774,-13.53245 17.14471,-15.8824 10.82566,-2.9558 20.63911,4.80105 21.18266,6.79735"
       style="fill:#299740;fill-opacity:1;fill-rule:nonzero;stroke:none;stroke-width:0.133333" /><path
       id="path30"
       d="m -640.31071,209.01313 c 18.51879,-12.15907 14.16395,-55.02117 12.1466,-96.17538 -0.84659,-17.229905 -1.98057,-31.916485 -2.57925,-42.441409 l -3.56919,0.3154 c 0,0 -0.28511,21.392304 0.79789,42.784919 1.09838,21.86985 1.60534,50.27085 -3.74708,50.2137 -5.34299,-0.0544 -4.18482,-23.51905 -4.80188,-51.02001 -0.488,-21.583955 -2.22538,-42.433839 -2.22538,-42.433839 l -3.20846,-0.0352 c 0,0 0.29849,19.988804 0.16808,41.518039 -0.15314,26.32911 1.15369,52.2347 -4.18568,52.17538 -5.34988,-0.0553 -4.08979,-25.95867 -4.45686,-50.83911 -0.31644,-21.878335 -1.67848,-43.324549 -1.67848,-43.324549 l -2.66952,-0.2017 c 0,0 -0.22388,21.783754 -0.46181,43.656879 -0.26894,24.64125 1.06728,50.26964 -4.45266,50.21158 -5.52681,-0.0591 -3.77481,-25.78389 -4.27201,-50.84112 -0.43417,-21.702335 -1.86913,-42.611869 -1.86913,-42.611869 l -2.84713,0.14964 c 0,0 -0.0908,19.317624 -0.81934,43.295019 -1.13293,37.3956 -6.815,82.04881 10.27449,95.18316 0.56343,5.03402 6.07555,56.35 1.21337,127.34534 -4.57036,66.81547 -21.17315,103.0974 8.35302,103.78983 l -0.005,0.0163 0.22458,-0.005 0.21991,0.007 -2e-5,-0.014 c 29.53153,-0.0607 13.70221,-36.69023 10.54756,-103.59102 -3.31246,-70.28888 3.10033,-121.14844 3.90004,-127.1298"
       style="fill:#d66826;fill-opacity:1;fill-rule:nonzero;stroke:none;stroke-width:0.311266" /><path
       id="path31"
       d="M -207.15772,110.21683 C -218.6126,82.619682 -231.5073,79.014652 -236.17257,78.672092 l -8e-4,-0.0288 c 0,0 -0.35191,-0.0434 -0.98305,-0.001 -0.53587,0.008 -0.833,0.0589 -0.833,0.0589 l -0.002,0.0245 c -4.55837,0.63036 -16.94337,5.02911 -27.55965,33.250228 -13.08173,34.77343 -16.26981,76.2566 21.02882,100.39292 0,0 7.06424,51.87849 5.04086,125.60698 -1.80633,65.86773 -14.75709,102.13885 10.30252,101.75628 l 2.9e-4,0.0104 0.18907,-0.013 0.18944,0.002 0.002,-0.0152 c 25.03824,-1.1206 10.48104,-36.56482 5.72946,-102.23245 -5.32162,-73.50456 -0.59023,-125.74188 -0.59023,-125.74188 36.16611,-26.34497 30.69052,-67.33875 16.50149,-101.52378"
       style="fill:#2d698c;fill-opacity:1;fill-rule:nonzero;stroke:none;stroke-width:0.268104" /><path
       id="path49"
       d="m -494.18993,168.97901 c 2.54365,1.96332 1.50184,19.42137 -11.63311,30.8569 -8.91911,7.76343 -18.97423,14.26092 -23.87884,17.27712 4.07186,-8.17176 14.78127,-28.63211 21.29764,-34.09621 0,0 -12.49259,7.75234 -24.73637,33.07601 -0.86071,-6.87419 -2.09221,-24.74692 6.36499,-35.70704 10.63942,-13.79084 30.04245,-13.36882 32.58569,-11.40678"
       style="fill:#299740;fill-opacity:1;fill-rule:nonzero;stroke:none;stroke-width:0.133333" /><path
       id="path91"
       d="m -423.73042,210.71059 c -1.526,2.224 3.81774,15.90133 17.26814,21.64267 9.132,3.89733 18.84266,6.48933 23.54133,7.63066 -5.36533,-5.476 -19.20933,-19.05466 -25.828,-21.73466 0,0 11.98533,2.96533 28.312,20.032 -1.09067,-5.716 -4.724,-20.31067 -14.31467,-26.88267 -12.06533,-8.26533 -27.45533,-2.91467 -28.9788,-0.688"
       style="fill:#299740;fill-opacity:1;fill-rule:nonzero;stroke:none;stroke-width:0.133333" /><path
       d="m -744.39937,567.10937 h 24.96 v -24.96 h 6.24 c 24,0 43.52,-19.52 43.52,-43.52 0,-24 -19.52,-43.52 -43.52,-43.52 h -31.2 z m 24.96,-49.6 v -37.76 h 6.24 c 10.4,0 18.72,8.48 18.72,18.88 0,10.40001 -8.48,18.88 -18.88,18.88 z m 110.23973,49.76 c 30.88,0 56,-25.12 56,-56 0,-30.88 -25.12,-55.84 -56,-55.84 -30.88,0 -56,25.12 -56,55.84 0,30.88 25.12,56 56,56 z m -31.36,-56 c 0,-17.12 14.08,-31.2 31.36,-31.2 17.28,0 31.36,14.08 31.36,31.2 0,17.28001 -14.08,31.36 -31.36,31.36 -17.28,0 -31.36,-14.07999 -31.36,-31.36 z m 97.11975,55.84 h 24.96 v -24.96 h 9.44 l 11.36,24.96 h 28.96 l -15.84,-34.88 c 9.6,-8 15.84,-20.15999 15.84,-33.6 0,-24 -19.52,-43.52 -43.52,-43.52 h -31.2 z m 24.96,-49.76 v -37.6 h 6.24 c 10.4,0 18.72,8.48 18.72,18.88 0,9.76 -7.36,17.76 -16.8,18.72 z m 78.07984,49.76 h 24.8 v -87.04 h 24.96 v -24.96 h -74.72 v 24.96 h 24.96 z m 35.99969,0 h 28.96 l 24,-52.96 23.84,52.96 h 28.96 l -52.8,-116.8 z m 155.35971,0 h 0.16 c 27.2,0 49.44,-22.24 49.6,-49.6 v -18.88 h -49.76 l -6.24,24.96001 h 30.56 c -2.88,10.72 -12.64,18.88 -24.32,18.88 -17.28,0 -31.36,-14.08001 -31.36,-31.36001 0,-17.27999 14.08,-31.36 31.36,-31.36 7.52,0 14.56,2.72001 20,7.36 l 17.44,-17.6 c -9.92,-8.96 -23.04,-14.4 -37.44,-14.4 -30.88,0 -56,25.12 -56,56 0,30.88 25.12,56 56,56 z m 59.67974,0 h 56 l 6.24,-24.96 h -37.28 v -18.55999 h 24.8 l 6.24,-24.96001 h -31.04 v -18.56 h 31.04 l 6.24,-24.96 h -62.24 z"
       id="text145"
       style="font-size:160px;font-family:Hypero;-inkscape-font-specification:'Hypero, @wght=100,wdth=76.1';font-variation-settings:'wdth' 76.1, 'wght' 100;fill:#2d698c;fill-rule:evenodd;stroke-width:0.377953;paint-order:markers fill stroke"
       aria-label="Portage" /><path
       id="path36"
       d="m -269.86324,309.47759 h -350.54214 c 2.26396,47.81091 52.63728,87.98863 121.64457,101.95322 v 18.70346 h 107.25297 v -18.70346 c 69.00473,-13.96459 119.38061,-54.14231 121.6446,-101.95322"
       style="fill:#2d698c;fill-opacity:1;fill-rule:nonzero;stroke:none;stroke-width:0.257269" /><path
       id="path34"
       d="m -309.04592,252.30224 c 0,0 3.75739,-3.98626 9.26086,-7.78491 5.19232,-3.58308 -0.84314,-9.06684 7.27985,-12.55211 -6.68459,-1.42043 -13.28847,5.71053 -13.45687,10.43581 0,0 -2.23396,-10.30417 9.81592,-11.32982 -2.05406,-0.39634 -6.86732,-5.05803 -11.56475,0.0204 -7.06005,7.6339 -1.33501,21.21066 -1.33501,21.21066"
       style="fill:#299740;fill-opacity:1;fill-rule:nonzero;stroke:none;stroke-width:0.0366293" /></g></svg>
