<?xml version="1.0" encoding="UTF-8" standalone="no"?>
<!-- Created with Inkscape (http://www.inkscape.org/) -->

<svg
   width="120"
   height="120"
   viewBox="0 0 31.75 31.75"
   version="1.1"
   id="svg1"
   xml:space="preserve"
   inkscape:version="1.3.1 (9b9bdc1480, 2023-11-25, custom)"
   sodipodi:docname="equipe.svg"
   xmlns:inkscape="http://www.inkscape.org/namespaces/inkscape"
   xmlns:sodipodi="http://sodipodi.sourceforge.net/DTD/sodipodi-0.dtd"
   xmlns="http://www.w3.org/2000/svg"
   xmlns:svg="http://www.w3.org/2000/svg"><sodipodi:namedview
     id="namedview1"
     pagecolor="#ffffff"
     bordercolor="#000000"
     borderopacity="0.25"
     inkscape:showpageshadow="2"
     inkscape:pageopacity="0.0"
     inkscape:pagecheckerboard="0"
     inkscape:deskcolor="#d1d1d1"
     inkscape:document-units="mm"
     inkscape:zoom="1.0557146"
     inkscape:cx="164.34366"
     inkscape:cy="146.81998"
     inkscape:window-width="1854"
     inkscape:window-height="1011"
     inkscape:window-x="0"
     inkscape:window-y="0"
     inkscape:window-maximized="1"
     inkscape:current-layer="g1"><inkscape:page
       x="0"
       y="0"
       width="31.75"
       height="31.75"
       id="page1"
       margin="0"
       bleed="0" /></sodipodi:namedview><defs
     id="defs1"><rect
       x="252.37263"
       y="197.4568"
       width="342.68005"
       height="222.30727"
       id="rect143" /><radialGradient
       fx="0"
       fy="0"
       cx="0"
       cy="0"
       r="1"
       gradientUnits="userSpaceOnUse"
       gradientTransform="matrix(4005,0,0,-4005,4010,4000)"
       spreadMethod="pad"
       id="radialGradient3"><stop
         style="stop-opacity:1;stop-color:#ffffff"
         offset="0"
         id="stop2" /><stop
         style="stop-opacity:1;stop-color:#e9e9e9"
         offset="1"
         id="stop3" /></radialGradient><clipPath
       clipPathUnits="userSpaceOnUse"
       id="clipPath3"><path
         d="M 8020,0 H 0 V 8000 H 8020 V 0 M 3969.94,6565 v -70 h 20 v 70 h 49.99 v 15.42 H 5529.58 V 8000 h -2960 V 6580.42 H 3924.94 V 6565 h 45"
         transform="translate(0,2.5000001e-4)"
         id="path3" /></clipPath><clipPath
       clipPathUnits="userSpaceOnUse"
       id="clipPath107"><path
         d="M 5529.58,6580.42 H 4039.93 V 6630 h -114.99 v -49.58 H 2569.58 V 8000 h 2960 V 6580.42"
         transform="matrix(3.354354e-4,0,0,-6.9386622e-4,-0.85834565,5.5586317)"
         id="path107" /></clipPath><clipPath
       clipPathUnits="userSpaceOnUse"
       id="clipPath108"><path
         d="m 3924.94,6580.42 h 114.988 v 49.5781 H 3924.94 Z"
         transform="matrix(0.00762195,0,0,-0.0140449,-29.869665,93.273617)"
         id="path108" /></clipPath><clipPath
       clipPathUnits="userSpaceOnUse"
       id="clipPath110"><path
         d="M 0,0 H 8000 V 8000 H 0 Z"
         transform="translate(0,2.5000001e-4)"
         id="path110" /></clipPath><clipPath
       clipPathUnits="userSpaceOnUse"
       id="clipPath112"><path
         d="M 0,0 H 8000 V 8000 H 0 Z"
         transform="translate(0,2.5000001e-4)"
         id="path112" /></clipPath><clipPath
       clipPathUnits="userSpaceOnUse"
       id="clipPath2"><g
         id="g142"><path
           d="M -3.351133e-6,1066.6667 H 1066.6666 V 2.8095166e-5 H -3.351133e-6 Z"
           id="path142"
           style="stroke-width:0.133333" /></g></clipPath><clipPath
       clipPathUnits="userSpaceOnUse"
       id="clipPath142"><g
         id="g143"><path
           d="M -3.351133e-6,1066.6667 H 1066.6666 V 2.8095166e-5 H -3.351133e-6 Z"
           id="path143"
           style="stroke-width:0.133333" /></g></clipPath><clipPath
       clipPathUnits="userSpaceOnUse"
       id="clipPath144"><rect
         style="fill:#e62a37;fill-opacity:1;fill-rule:evenodd;stroke-width:0.377953;paint-order:markers fill stroke"
         id="rect145"
         width="711.20062"
         height="398.63965"
         x="-724.59332"
         y="-101.5507"
         transform="rotate(9.9613152)" /></clipPath></defs><g
     inkscape:label="Calque 1"
     inkscape:groupmode="layer"
     id="layer1"
     transform="translate(-36.338477,-18.401606)" /><path
     d="m -622.21156,203.50439 h 24.64 v -52.16 l 18.88,20.64 18.88,-20.64 v 52 h 24.64 V 151.90868 87.664395 l -43.52,47.679995 -43.52,-47.519995 z m 101.59973,0 h 56 l 6.24,-24.96 h -37.28 v -18.56 h 24.8 l 6.24,-24.96 h -31.04 v -18.56 h 31.04 l 6.24,-24.959995 h -62.24 z m 159.19995,4.96 V 91.504395 h -24.64 v 57.279995 l -62.24,-62.239995 V 203.50439 h 24.64 v -57.28 z m 50.55982,-4.64 c 20.64,0 37.28,-16.64 37.44,-37.28 V 91.504395 h -24.8 v 75.039995 c 0,6.88 -5.6,12.64 -12.64,12.64 -6.88,0 -12.64,-5.76 -12.64,-12.64 V 91.504395 h -24.64 v 75.039995 c 0,20.64 16.8,37.28 37.28,37.28 z"
     id="text143"
     clip-path="url(#clipPath144)"
     style="font-size:160px;font-family:Hypero;-inkscape-font-specification:'Hypero, Normal';fill:#d66826;fill-rule:evenodd;stroke-width:0.377953;paint-order:markers fill stroke"
     transform="matrix(0.06826988,0,0,0.06826988,46.624722,2.904124)"
     aria-label="Menu"
     sodipodi:nodetypes="ccccccccccccccccccccccccccccccccccscccsssccss" /><g
     id="g1"
     inkscape:groupmode="layer"
     inkscape:label="1"
     transform="matrix(0.26458332,0,0,0.26458335,183.66154,-18.401606)"><path
       id="path30"
       d="m -681.32246,107.1308 c 4.30014,-2.79605 3.28893,-12.652477 2.82049,-22.116157 -0.19657,-3.96213 -0.4599,-7.33941 -0.59891,-9.75968 l -0.82877,0.0726 c 0,0 -0.0662,4.91929 0.18527,9.83867 0.25505,5.02912 0.37276,11.56012 -0.87009,11.54697 -1.24066,-0.0125 -0.97173,-5.40836 -1.11501,-11.73239 -0.11332,-4.96337 -0.51675,-9.75794 -0.51675,-9.75794 l -0.74501,-0.008 c 0,0 0.0693,4.59657 0.039,9.54735 -0.0356,6.05456 0.26789,12.01172 -0.97193,11.99807 -1.24226,-0.0127 -0.94966,-5.96936 -1.0349,-11.69079 -0.0735,-5.03106 -0.38975,-9.96276 -0.38975,-9.96276 l -0.61987,-0.0463 c 0,0 -0.0519,5.00931 -0.10723,10.03918 -0.0624,5.66642 0.24782,11.55984 -1.03393,11.54649 -1.28335,-0.0136 -0.87653,-5.92918 -0.99198,-11.69126 -0.10081,-4.99058 -0.43402,-9.79888 -0.43402,-9.79888 l -0.66112,0.0344 c 0,0 -0.0211,4.44222 -0.19025,9.95598 -0.26307,8.59936 -1.58247,18.867667 2.38578,21.887997 0.13083,1.15761 1.41077,12.95805 0.28175,29.28391 -1.06126,15.36465 -4.91648,23.70793 1.9396,23.86715 l -9.2e-4,0.004 0.0521,-9.2e-4 0.051,0.002 v -0.003 c 6.85733,-0.014 3.18171,-8.43717 2.44919,-23.82144 -0.76917,-16.1634 0.7199,-27.8589 0.9056,-29.23434"
       style="fill:#d66826;fill-opacity:1;fill-rule:nonzero;stroke:none;stroke-width:0.0719268" /><path
       id="path31"
       d="m -576.13272,82.81128 c -2.65987,-6.505679 -5.65405,-7.355519 -6.73735,-7.436269 l -1.8e-4,-0.006 c 0,0 -0.0817,-0.0102 -0.22827,-2.3e-4 -0.12443,0.002 -0.19342,0.0139 -0.19342,0.0139 l -4.7e-4,0.006 c -1.05847,0.14861 -3.93432,1.18555 -6.39945,7.838319 -3.03764,8.1974 -3.77792,17.97653 4.88296,23.66637 0,0 1.64035,12.2297 1.17052,29.61026 -0.41944,15.52748 -3.42666,24.07793 2.39227,23.98775 l 7e-5,0.003 0.0439,-0.003 0.0439,4.7e-4 4.7e-4,-0.004 c 5.81397,-0.26417 2.43373,-8.61969 1.3304,-24.10001 -1.2357,-17.32778 -0.13705,-29.64206 -0.13705,-29.64206 8.3979,-6.21049 7.12645,-15.87426 3.8317,-23.93295"
       style="fill:#2d698c;fill-opacity:1;fill-rule:nonzero;stroke:none;stroke-width:0.0627266" /><path
       id="path49"
       d="m -652.67438,93.413616 c 0.59065,0.45589 0.34873,4.509708 -2.70125,7.165084 -2.07106,1.8027 -4.40589,3.31144 -5.54476,4.01181 0.9455,-1.89751 3.43227,-6.648476 4.9454,-7.917266 0,0 -2.90084,1.80012 -5.74389,7.680376 -0.19986,-1.59621 -0.48581,-5.746326 1.47797,-8.291306 2.47052,-3.202288 6.97598,-3.104288 7.56653,-2.648698"
       style="fill:#299740;fill-opacity:1;fill-rule:nonzero;stroke:none;stroke-width:0.0309604" /><path
       id="path91"
       d="m -616.5326,95.129168 c -0.35434,0.51641 0.8865,3.69234 4.00973,5.025502 2.12049,0.90497 4.37534,1.50685 5.46639,1.77187 -1.24585,-1.27155 -4.46048,-4.424562 -5.99736,-5.046872 0,0 2.78304,0.68856 6.57415,4.651512 -0.25326,-1.32728 -1.09693,-4.716222 -3.32392,-6.242262 -2.80162,-1.91924 -6.37523,-0.6768 -6.72899,-0.15975"
       style="fill:#299740;fill-opacity:1;fill-rule:nonzero;stroke:none;stroke-width:0.0309604" /><path
       d="m -693.07909,185.58266 h 4.85227 v -4.85228 h 1.21307 c 4.66564,0 8.46036,-3.79472 8.46036,-8.46036 0,-4.66564 -3.79472,-8.46036 -8.46036,-8.46036 h -6.06534 z m 4.85227,-9.64233 v -7.34061 h 1.21307 c 2.02178,0 3.6392,1.64853 3.6392,3.6703 0,2.02178 -1.64853,3.67031 -3.67031,3.67031 z m 21.43079,9.67342 c 6.00313,0 10.8865,-4.88337 10.8865,-10.88649 0,-6.00312 -4.88337,-10.8554 -10.8865,-10.8554 -6.00313,0 -10.8865,4.88338 -10.8865,10.8554 0,6.00312 4.88337,10.88649 10.8865,10.88649 z m -6.09644,-10.88649 c 0,-3.32816 2.73718,-6.06534 6.09644,-6.06534 3.35927,0 6.09644,2.73718 6.09644,6.06534 0,3.35927 -2.73717,6.09644 -6.09644,6.09644 -3.35926,0 -6.09644,-2.73717 -6.09644,-6.09644 z m 18.88026,10.8554 h 4.85226 v -4.85228 h 1.83515 l 2.20841,4.85228 h 5.62988 l -3.07934,-6.78074 c 1.86627,-1.55522 3.07934,-3.91914 3.07934,-6.5319 0,-4.66564 -3.79473,-8.46036 -8.46037,-8.46036 h -6.06533 z m 4.85226,-9.67344 v -7.3095 h 1.21307 c 2.02178,0 3.6392,1.64853 3.6392,3.6703 0,1.89737 -1.4308,3.45257 -3.26595,3.6392 z m 15.17886,9.67344 h 4.82116 v -16.92074 h 4.85227 v -4.85226 h -14.5257 v 4.85226 h 4.85227 z m 6.9984,0 h 5.62988 l 4.66564,-10.29553 4.63454,10.29553 h 5.62987 l -10.26441,-22.70613 z m 30.2022,0 h 0.0311 c 5.28773,0 9.61122,-4.3235 9.64233,-9.64233 v -3.67031 h -9.67344 l -1.21306,4.85227 h 5.94091 c -0.55988,2.08399 -2.45724,3.67031 -4.72785,3.67031 -3.35926,0 -6.09643,-2.73718 -6.09643,-6.09644 0,-3.35926 2.73717,-6.09644 6.09643,-6.09644 1.4619,0 2.83049,0.52877 3.88803,1.43079 l 3.39037,-3.42147 c -1.92846,-1.74184 -4.47902,-2.79938 -7.2784,-2.79938 -6.00313,0 -10.8865,4.88337 -10.8865,10.8865 0,6.00312 4.88337,10.8865 10.8865,10.8865 z m 11.60185,0 h 10.8865 l 1.21306,-4.85228 h -7.2473 v -3.60809 h 4.82117 l 1.21307,-4.85227 h -6.03424 v -3.6081 h 6.03424 l 1.21306,-4.85226 h -12.09956 z"
       id="text145"
       style="font-size:160px;font-family:Hypero;-inkscape-font-specification:'Hypero, @wght=100,wdth=76.1';font-variation-settings:'wdth' 76.1, 'wght' 100;fill:#2d698c;fill-rule:evenodd;stroke-width:0.0734746;paint-order:markers fill stroke"
       aria-label="Portage" /><path
       style="fill:#2d688b;fill-opacity:1;stroke-width:0.286005"
       d="m -653.6617,158.5232 c 0.10793,-4.4858 0.13875,-4.65933 1.05553,-5.97397 0.51934,-0.74468 1.61603,-1.79001 2.4371,-2.32294 0.82108,-0.53295 2.08327,-1.18064 2.80486,-1.43931 0.7216,-0.25867 1.97296,-0.60936 2.78081,-0.77931 1.46883,-0.30901 1.46883,-0.30901 5.87928,2.78979 4.41045,3.0988 4.41045,3.0988 8.8209,0 4.41047,-3.0988 4.41047,-3.0988 5.87928,-2.78979 0.80786,0.16995 2.05922,0.52064 2.78082,0.77931 0.72159,0.25867 1.95843,0.88991 2.74854,1.40276 0.79011,0.51283 1.88681,1.55816 2.43713,2.32295 0.98838,1.37361 1.0019,1.44665 1.11181,6.01051 0.11133,4.61999 0.11133,4.61999 -19.36803,4.61999 -19.4793,0 -19.4793,0 -19.36803,-4.61999 z m -9.26149,-1.81644 c 0,-2.91015 0.14316,-4.36669 0.51307,-5.22 0.28218,-0.65096 1.03171,-1.6783 1.66562,-2.28298 0.63392,-0.60469 1.89147,-1.44407 2.79459,-1.8653 0.90311,-0.42123 2.41168,-0.92683 3.35237,-1.12353 1.71034,-0.35767 1.71034,-0.35767 3.04025,0.57881 1.32991,0.93648 1.32991,0.93648 -0.0615,1.82162 -0.76523,0.48683 -1.86168,1.38516 -2.43655,1.9963 -0.57486,0.61113 -1.34828,1.80211 -1.71871,2.64661 -0.51727,1.1793 -0.67348,2.22549 -0.67348,4.51019 0,2.97471 0,2.97471 -3.23787,2.97471 -3.23786,0 -3.23786,0 -3.23786,-4.03643 z m 50.77927,1.09643 c -10e-4,-1.77132 -0.19669,-3.44964 -0.48868,-4.22212 -0.26654,-0.70517 -0.99325,-1.87589 -1.61488,-2.60162 -0.62164,-0.72572 -1.79922,-1.75511 -2.61685,-2.28753 -1.48659,-0.96804 -1.48659,-0.96804 -0.1612,-1.90134 1.3254,-0.9333 1.3254,-0.9333 3.03573,-0.57563 0.9407,0.1967 2.44926,0.7023 3.35236,1.12353 0.90313,0.42123 2.16068,1.26061 2.79459,1.8653 0.63393,0.60468 1.38345,1.63202 1.66564,2.28298 0.3699,0.85331 0.51306,2.30985 0.51306,5.22 0,4.03643 0,4.03643 -3.23786,4.03643 -3.23786,0 -3.23786,0 -3.24191,-2.94 z m -24.63688,-12.04615 c -0.71182,-0.1788 -1.86422,-0.5907 -2.56087,-0.91534 -0.73265,-0.34141 -1.68891,-1.13582 -2.26832,-1.88438 -0.8206,-1.06017 -1.0005,-1.57614 -0.99513,-2.85413 0.004,-1.02099 0.21797,-1.85023 0.61847,-2.39999 0.33655,-0.462 1.09319,-1.20046 1.68145,-1.64103 0.58824,-0.44058 1.60633,-0.99463 2.26242,-1.23125 0.6561,-0.23661 1.83908,-0.50596 2.62886,-0.59857 0.96033,-0.1126 2.0657,-0.0394 3.33716,0.22083 1.16675,0.23885 2.43195,0.72684 3.2751,1.26323 0.75566,0.48072 1.69718,1.31341 2.09231,1.85042 0.51097,0.69448 0.7206,1.42675 0.72604,2.53636 0.006,1.27997 -0.173,1.79383 -0.9987,2.86257 -0.67869,0.87845 -1.50191,1.52411 -2.5283,1.983 -0.83707,0.37424 -2.06407,0.78648 -2.72662,0.91609 -0.66257,0.12963 -1.66479,0.23153 -2.22716,0.22647 -0.56236,-0.005 -1.60488,-0.15548 -2.31671,-0.33428 z m -10.25045,-1.6862 c -0.72592,-0.18221 -1.87552,-0.64799 -2.55469,-1.03506 -0.67914,-0.38707 -1.59594,-1.19789 -2.0373,-1.80182 -0.583,-0.79774 -0.80245,-1.49594 -0.80245,-2.55292 0,-1.16724 0.19919,-1.7043 1.0075,-2.71637 0.68572,-0.85857 1.52727,-1.4895 2.63483,-1.97541 1.2804,-0.56173 2.10822,-0.73237 3.88336,-0.8005 1.24083,-0.0476 2.69592,0.0328 3.23355,0.17876 0.9775,0.26534 0.9775,0.26534 -0.62055,1.46837 -0.87893,0.66167 -1.92473,1.71249 -2.32399,2.33517 -0.52829,0.82388 -0.7293,1.62413 -0.73828,2.93906 -0.01,1.47107 0.15136,2.03981 0.86835,3.05999 0.88068,1.25309 0.88068,1.25309 -0.17491,1.24255 -0.58055,-0.005 -1.6495,-0.15961 -2.37542,-0.34182 z m 22.88902,-0.84978 c 0.68185,-0.97016 0.89034,-1.63277 0.89704,-2.85089 0.004,-0.91939 -0.25011,-2.11818 -0.60657,-2.84974 -0.38282,-0.78567 -1.26006,-1.75955 -2.32185,-2.57762 -1.70654,-1.31485 -1.70654,-1.31485 -0.80117,-1.55722 0.49795,-0.13331 1.79809,-0.24239 2.88921,-0.24239 1.50965,0 2.41961,0.16029 3.80686,0.67061 1.30406,0.47971 2.10394,0.9906 2.80992,1.79468 0.54281,0.61823 1.10012,1.55998 1.23849,2.09275 0.13832,0.53276 0.11772,1.48015 -0.0459,2.10531 -0.16353,0.62516 -0.72321,1.56609 -1.24374,2.09097 -0.52054,0.52488 -1.64049,1.25649 -2.48879,1.62579 -0.89587,0.39002 -2.27163,0.7323 -3.28215,0.81659 -1.73974,0.14508 -1.73974,0.14508 -0.85144,-1.11884 z"
       id="path1" /></g></svg>
