<?xml version="1.0" encoding="UTF-8" standalone="no"?>
<!-- Created with Inkscape (http://www.inkscape.org/) -->

<svg
   version="1.1"
   id="svg1"
   width="401.33334"
   height="466.66666"
   viewBox="0 0 401.33334 466.66666"
   sodipodi:docname="logo_avancé_ink.svg"
   xml:space="preserve"
   inkscape:version="1.3.1 (9b9bdc1480, 2023-11-25, custom)"
   xmlns:inkscape="http://www.inkscape.org/namespaces/inkscape"
   xmlns:sodipodi="http://sodipodi.sourceforge.net/DTD/sodipodi-0.dtd"
   xmlns="http://www.w3.org/2000/svg"
   xmlns:svg="http://www.w3.org/2000/svg"><defs
     id="defs1"><clipPath
       clipPathUnits="userSpaceOnUse"
       id="clipPath55"><path
         d="M 0,0 H 301 V 350 H 0 Z"
         id="path55" /></clipPath><clipPath
       clipPathUnits="userSpaceOnUse"
       id="clipPath57"><path
         d="M 27.766,66.641 H 284.09 V 303.668 H 27.766 Z"
         transform="scale(1.3333333)"
         id="path57" /></clipPath><clipPath
       clipPathUnits="userSpaceOnUse"
       id="clipPath58"><path
         d="M 0,0 H 301 V 350 H 0 Z"
         id="path58" /></clipPath><clipPath
       clipPathUnits="userSpaceOnUse"
       id="clipPath60"><path
         d="M 27.766,66.641 H 284.09 V 303.668 H 27.766 Z"
         transform="scale(1.3333333)"
         id="path60" /></clipPath><clipPath
       clipPathUnits="userSpaceOnUse"
       id="clipPath61"><path
         d="M 0,0 H 301 V 350 H 0 Z"
         id="path61" /></clipPath><clipPath
       clipPathUnits="userSpaceOnUse"
       id="clipPath63"><path
         d="M 27.766,66.641 H 284.09 V 303.668 H 27.766 Z"
         transform="scale(1.3333333)"
         id="path63" /></clipPath><clipPath
       clipPathUnits="userSpaceOnUse"
       id="clipPath64"><path
         d="M 0,0 H 301 V 350 H 0 Z"
         id="path64" /></clipPath><clipPath
       clipPathUnits="userSpaceOnUse"
       id="clipPath66"><path
         d="M 27.766,66.641 H 284.09 V 303.668 H 27.766 Z"
         transform="scale(1.3333333)"
         id="path66" /></clipPath><clipPath
       clipPathUnits="userSpaceOnUse"
       id="clipPath68"><path
         d="M 27.766,66.641 H 284.09 V 303.668 H 27.766 Z"
         transform="scale(1,1.0033331)"
         id="path68" /></clipPath></defs><sodipodi:namedview
     id="namedview1"
     pagecolor="#ffffff"
     bordercolor="#000000"
     borderopacity="0.25"
     inkscape:showpageshadow="2"
     inkscape:pageopacity="0.0"
     inkscape:pagecheckerboard="0"
     inkscape:deskcolor="#d1d1d1"
     inkscape:zoom="2"
     inkscape:cx="154.25"
     inkscape:cy="177.5"
     inkscape:window-width="1854"
     inkscape:window-height="1011"
     inkscape:window-x="0"
     inkscape:window-y="0"
     inkscape:window-maximized="1"
     inkscape:current-layer="g1"><inkscape:page
       x="0"
       y="0"
       inkscape:label="1"
       id="page1"
       width="401.33334"
       height="466.66666"
       margin="0"
       bleed="0"
       inkscape:export-filename="logo_portage.pdf"
       inkscape:export-xdpi="96"
       inkscape:export-ydpi="96" /></sodipodi:namedview><g
     id="g1"
     inkscape:groupmode="layer"
     inkscape:label="1"
     style="display:inline"><path
       id="path1"
       d="m 40.609389,236.80529 332.806661,-0.44252 c 0,0 9.896,2.23522 0.14133,10.44253 -9.756,8.20864 -331.218658,1.90166 -331.218658,1.90166 0,0 -12.646667,-7.65582 -1.729333,-11.90167 z"
       style="fill:#797979;fill-opacity:1;fill-rule:nonzero;stroke:#000000;stroke-width:0.945109;stroke-linecap:butt;stroke-linejoin:miter;stroke-miterlimit:4;stroke-dasharray:none;stroke-opacity:1" /><path
       id="path2"
       d="m 140.113,98.402 c 0,0 -15.343,0.192 -17.523,-2.609 -3.231,-4.156 -4.824,-10.473 -10.328,-9.965 -2.446,0.227 -2.95,4.231 -2.95,4.231 0,0 11.868,17.343 8.805,16.621 -3.824,-0.899 6.035,-0.289 6.035,-0.289 0,0 18.059,-6.489 15.961,-7.989 z"
       style="fill:#f42e20;fill-opacity:1;fill-rule:nonzero;stroke:none"
       transform="scale(1.3333333)" /><path
       id="path3"
       d="m 77.949,153.345 c 0,0 12.426,-52.451 77.832,-53.458 65.41,-1.012 79.99405,55.51152 79.99405,55.51152"
       style="fill:#797979;fill-opacity:1;fill-rule:nonzero;stroke:#000000;stroke-width:0.753681;stroke-linecap:butt;stroke-linejoin:miter;stroke-miterlimit:4;stroke-dasharray:none;stroke-opacity:1"
       transform="scale(1.3333333,1.328904)"
       sodipodi:nodetypes="ccc" /><path
       id="path5"
       d="m 180.203,113.145 c 0,0 19.922,8.705 28.703,21.043 8.649,12.15 7.528,11.715 7.528,11.715 l 7.109,3.899 c 0,0 -2.84,-21.932 -20.961,-29.9 -18.125,-7.968 -22.379,-6.757 -22.379,-6.757 z"
       style="fill:#ffffff;fill-opacity:1;fill-rule:nonzero;stroke:#ffffff;stroke-width:0.753681;stroke-linecap:butt;stroke-linejoin:miter;stroke-miterlimit:4;stroke-dasharray:none;stroke-opacity:1"
       transform="scale(1.3333333,1.328904)" /><path
       id="path6"
       d="m 142.422,101.376 c 0,0 26.805,-0.639 39.644,2.873 12.84,3.511 5.11,-33.894 -6.105,-32.205 -11.219,1.689 -44.387,-27.078 -32.09,-40.588 12.297,-13.51 -13.961,9.924 -9.691,9.689 4.269,-0.232 -6.903,10.484 5.828,23.147 12.726,12.667 8.094,19.917 8.094,19.917 z"
       style="fill:#f42e20;fill-opacity:1;fill-rule:nonzero;stroke:#000000;stroke-width:0.804716;stroke-linecap:butt;stroke-linejoin:miter;stroke-miterlimit:4;stroke-dasharray:none;stroke-opacity:1"
       transform="scale(1.3333333,1.328904)" /><path
       id="path7"
       d="m 162.23,18.319 c 0,0 -23.32,-4.754 -33.097,20.537 -9.778,25.295 12.922,32.957 14.347,38.146 1.422,5.189 -7.57596,24.94333 -7.57596,24.94333 l 9.85935,-0.92138 c 0,0 2.90461,-8.12595 3.18161,-13.59695 0.192,-3.754 4.047,-15.077 -4.539,-20.831 -5.422,-3.633 -9.176,-21.454 -5.398,-27.768 3.781,-6.314 14.804,-16.124 14.804,-16.124 l 8.684,-4.327 z"
       style="fill:#000000;fill-opacity:1;fill-rule:nonzero;stroke:#000000;stroke-width:0.753681;stroke-linecap:butt;stroke-linejoin:miter;stroke-miterlimit:4;stroke-dasharray:none;stroke-opacity:1"
       transform="scale(1.3333333,1.328904)"
       sodipodi:nodetypes="ccccccccccc" /><path
       id="path8"
       d="m 183.94656,104.45558 c 0,0 8.06544,-3.13858 3.75244,-20.14058 C 183.312,67.02 172.285,65.589 172.285,65.589 l -20.73,-13.396 c 0,0 -8.743,-7.462 -6.758,-14.772 1.129,-4.154 0.781,-7.991 5.918,-12.326 5.226,-4.409 -10.09,6.232 -10.09,6.232 0,0 1.039,17.609 5.359,23.217 3.133,4.073 2.899,14.161 20.164,17.477 17.266,3.311 18.0957,30.89611 14.5997,31.26911 -3.492,0.372 3.19886,1.16547 3.19886,1.16547 z"
       style="fill:#000000;fill-opacity:1;fill-rule:nonzero;stroke:#000000;stroke-width:0.786054;stroke-linecap:butt;stroke-linejoin:miter;stroke-miterlimit:4;stroke-dasharray:none;stroke-opacity:1"
       transform="scale(1.3333333,1.328904)"
       sodipodi:nodetypes="ccccccccccc" /><path
       id="path9"
       d="m 52.984,88.819 c 0.34,0.062 29.184,12.353 29.184,12.353 0,0 3.906,-0.255 2.352,-4.672 -1.559,-4.417 -28.676,-13.784 -28.676,-13.784 0,0 -3.774,1.446 -2.86,6.103 z"
       style="fill:#f42e20;fill-opacity:1;fill-rule:nonzero;stroke:#000000;stroke-width:0.753681;stroke-linecap:butt;stroke-linejoin:miter;stroke-miterlimit:4;stroke-dasharray:none;stroke-opacity:1"
       transform="scale(1.3333333,1.328904)" /><path
       id="path10"
       d="m 71.008,63.304 16.867,14.948 c 0,0 8.387,0.717 3.727,-6.392 -4.664,-7.11 -16.231,-14.795 -16.231,-14.795 0,0 -4.933,0.423 -4.363,6.239 z"
       style="fill:#f42e20;fill-opacity:1;fill-rule:nonzero;stroke:#000000;stroke-width:0.753681;stroke-linecap:butt;stroke-linejoin:miter;stroke-miterlimit:4;stroke-dasharray:none;stroke-opacity:1"
       transform="scale(1.3333333,1.328904)" /><path
       id="path11"
       d="m 92.902,41.34 c -0.023,0.408 12.215,17.257 12.403,17.053 0.187,-0.204 3.609,1.885 3.593,-3.112 -0.015,-4.993 -10.91,-16.006 -10.832,-16.786 0.079,-0.776 -6.109,-1.285 -5.164,2.845 z"
       style="fill:#f42e20;fill-opacity:1;fill-rule:nonzero;stroke:#000000;stroke-width:0.753681;stroke-linecap:butt;stroke-linejoin:miter;stroke-miterlimit:4;stroke-dasharray:none;stroke-opacity:1"
       transform="scale(1.3333333,1.328904)" /><path
       id="path12"
       d="m 228.656,96.112 30.227,-12.459 c 0,0 5.211,1.579 1.66,5.401 -3.551,3.825 -28.93,11.593 -28.93,11.593 0,0 -6.547,-1.662 -2.957,-4.535 z"
       style="fill:#f42e20;fill-opacity:1;fill-rule:nonzero;stroke:#000000;stroke-width:0.753681;stroke-linecap:butt;stroke-linejoin:miter;stroke-miterlimit:4;stroke-dasharray:none;stroke-opacity:1"
       transform="scale(1.3333333,1.328904)" /><path
       id="path13"
       d="M 218.68,73.024 236.16,58.66 c 0,0 5.84648,-1.319348 4.20148,5.350652 -3.23116,6.53252 -17.38149,13.614919 -17.38149,13.614919 0,0 -7.83899,1.300429 -4.29999,-4.601571 z"
       style="fill:#f42e20;fill-opacity:1;fill-rule:nonzero;stroke:#000000;stroke-width:0.753681;stroke-linecap:butt;stroke-linejoin:miter;stroke-miterlimit:4;stroke-dasharray:none;stroke-opacity:1"
       transform="scale(1.3333333,1.328904)"
       sodipodi:nodetypes="ccccc" /><path
       id="path14"
       d="m 204.328,56.641 c 0.594,-0.709 11.352,-17.205 11.352,-17.205 0,0 5.758,-2.387 5.082,3.116 -0.676,5.502 -11.141,16.809 -11.692,17.08 -0.554,0.266 -5.484,2.069 -4.742,-2.991 z"
       style="fill:#f42e20;fill-opacity:1;fill-rule:nonzero;stroke:#000000;stroke-width:0.753681;stroke-linecap:butt;stroke-linejoin:miter;stroke-miterlimit:4;stroke-dasharray:none;stroke-opacity:1"
       transform="scale(1.3333333,1.328904)" /><path
       id="path15"
       d="m 184.375,44.813 6.57,-18.244 c 0,0 3.403,-1.964 4.414,1.783 1.008,3.747 -5.91,18.675 -5.91,18.675 0,0 -4.515,1.454 -5.074,-2.214 z"
       style="fill:#f42e20;fill-opacity:1;fill-rule:nonzero;stroke:#000000;stroke-width:0.753681;stroke-linecap:butt;stroke-linejoin:miter;stroke-miterlimit:4;stroke-dasharray:none;stroke-opacity:1"
       transform="scale(1.3333333,1.328904)" /><text
       id="text15"
       xml:space="preserve"
       transform="scale(1.0665843,0.93757243)"
       x="96.440765"
       y="243.75797"
       style="font-size:15.8662px;stroke-width:1.32218"><tspan
         style="font-style:italic;font-variant:normal;font-weight:normal;font-size:31.3505px;font-family:C059;writing-mode:lr-tb;fill:#000000;fill-opacity:1;fill-rule:nonzero;stroke:none;stroke-width:1.32218"
         x="96.440765"
         y="243.75797"
         id="tspan15">M</tspan></text><path
       id="path16"
       d="m 115.00616,207.32191 h -8.08757 l -0.17629,1.37227 h 0.8814 c 2.15903,0 2.62299,0.14629 2.62299,0.79089 0,0.25041 -0.0888,0.74874 -0.3314,1.45657 l -3.41554,11.21376 c -1.2551,4.18131 -1.93904,4.95111 -4.34064,5.01434 l -0.15371,1.37228 h 8.35129 l 0.17626,-1.37228 c -2.04903,0 -2.97554,-0.49957 -2.97554,-1.62269 0,-0.64585 0.0225,-0.76981 0.75023,-3.39165 l 3.45925,-11.31788 2.0702,17.7045 h 1.21278 l 12.91192,-18.09995 -4.42947,14.4802 c -0.46256,1.53964 -0.50628,1.56071 -0.76999,1.83095 -0.33139,0.29131 -1.0365,0.37438 -2.79928,0.41652 h -0.13255 l -0.17628,1.37228 h 10.59918 l 0.19883,-1.37228 h -0.86024 c -2.18159,0 -2.64415,-0.14628 -2.64415,-0.81197 0,-0.22932 0.13257,-0.74873 0.33141,-1.4355 l 4.2518,-13.98063 c 0.46254,-1.56069 0.46254,-1.56069 0.77138,-1.83094 0.3314,-0.29131 1.03651,-0.37436 2.79927,-0.41652 h 0.13115 l 0.17628,-1.37227 h -7.22734 l -11.41287,15.87356 z"
       style="fill:none;stroke:#000000;stroke-width:1.35921;stroke-linecap:butt;stroke-linejoin:miter;stroke-miterlimit:4;stroke-dasharray:none;stroke-opacity:1" /><text
       id="text16"
       xml:space="preserve"
       transform="scale(1.0665843,0.93757243)"
       x="126.03567"
       y="243.75797"
       style="font-size:15.8662px;stroke-width:1.32218"><tspan
         style="font-style:italic;font-variant:normal;font-weight:normal;font-size:31.3505px;font-family:C059;writing-mode:lr-tb;fill:#000000;fill-opacity:1;fill-rule:nonzero;stroke:none;stroke-width:1.32218"
         x="126.03567"
         y="243.75797"
         id="tspan16">e</tspan></text><path
       id="path17"
       d="m 145.77703,225.13053 c -1.98277,1.7888 -3.41554,2.47555 -5.20087,2.47555 -2.00392,0 -3.23786,-1.18632 -3.23786,-3.05817 0,-0.20827 0.0436,-0.62478 0.0648,-0.99916 3.94436,-0.83179 4.56204,-0.9979 6.08225,-1.60161 2.62159,-0.99914 4.0318,-2.49663 4.0318,-4.20236 0,-1.7888 -1.60764,-3.01728 -3.98808,-3.01728 -4.89204,0 -9.29894,4.34865 -9.29894,9.1758 0,3.16231 2.18158,5.07631 5.79597,5.07631 2.55531,0 4.7369,-0.99915 6.54339,-3.05819 z m -8.19758,-2.72596 c 0.7714,-3.97304 2.79928,-6.51182 5.2883,-6.51182 1.10279,0 1.82906,0.68677 1.82906,1.68591 0,1.41443 -1.03511,2.68382 -2.88672,3.55776 -1.18881,0.62354 -2.02647,0.85287 -4.23064,1.26815 z"
       style="fill:none;stroke:#000000;stroke-width:1.35921;stroke-linecap:butt;stroke-linejoin:miter;stroke-miterlimit:4;stroke-dasharray:none;stroke-opacity:1" /><text
       id="text17"
       xml:space="preserve"
       transform="scale(1.0665843,0.93757243)"
       x="139.95526"
       y="243.75797"
       style="font-size:15.8662px;stroke-width:1.32218"><tspan
         style="font-style:italic;font-variant:normal;font-weight:normal;font-size:31.3505px;font-family:C059;writing-mode:lr-tb;fill:#000000;fill-opacity:1;fill-rule:nonzero;stroke:none;stroke-width:1.32218"
         x="139.95526"
         y="243.75797"
         id="tspan17">n</tspan></text><path
       id="path18"
       d="m 156.94309,214.7275 -6.05969,0.43758 -0.13254,1.06113 h 0.79394 c 1.36509,0 1.91648,0.27026 1.91648,0.91486 0,0.29131 -0.0663,0.60371 -0.30884,1.29046 l -3.41554,10.11049 h 2.90928 l 1.38765,-4.07717 c 0.86022,-2.55861 1.2565,-3.39166 2.46787,-4.95235 1.43278,-1.87186 3.21811,-3.01603 4.64947,-3.01603 0.77139,0 1.34394,0.52063 1.34394,1.20616 0,0.52064 -0.13115,1.10327 -0.50627,2.06028 l -1.78533,4.57673 c -0.41743,1.16526 -0.59511,1.83095 -0.59511,2.43465 0,1.26816 1.01395,2.20532 2.31416,2.20532 2.13789,0 4.34064,-1.58178 6.14712,-4.41063 l -0.96881,-0.60371 c -1.69649,2.35035 -3.1067,3.51562 -4.18692,3.51562 -0.28628,0 -0.54999,-0.22809 -0.54999,-0.56156 0,-0.31239 0.0875,-0.66568 0.61626,-1.95491 l 1.58649,-4.05734 c 0.52883,-1.35243 0.79395,-2.47555 0.79395,-3.32842 0,-1.5607 -1.43278,-2.85116 -3.21811,-2.85116 -1.96019,0 -3.94436,1.2694 -6.16968,3.97427 z"
       style="fill:none;stroke:#000000;stroke-width:1.35921;stroke-linecap:butt;stroke-linejoin:miter;stroke-miterlimit:4;stroke-dasharray:none;stroke-opacity:1" /><text
       id="text18"
       xml:space="preserve"
       transform="scale(1.0665843,0.93757243)"
       x="159.1104"
       y="243.75797"
       style="font-size:15.8662px;stroke-width:1.32218"><tspan
         style="font-style:italic;font-variant:normal;font-weight:normal;font-size:31.3505px;font-family:C059;writing-mode:lr-tb;fill:#000000;fill-opacity:1;fill-rule:nonzero;stroke:none;stroke-width:1.32218"
         x="159.1104"
         y="243.75797"
         id="tspan18">u</tspan></text><path
       id="path19"
       d="m 186.7395,215.16508 h -2.90926 l -1.58649,4.70196 c -1.3651,4.09823 -4.45064,7.44773 -6.80852,7.44773 -0.8151,0 -1.45392,-0.56155 -1.45392,-1.26939 0,-0.37437 0.10999,-0.85286 0.3751,-1.68466 l 3.28298,-9.63322 -6.45596,0.43758 -0.1114,1.06113 h 0.81651 c 1.3651,0 1.87277,0.27026 1.87277,0.93594 0,0.29132 -0.11,0.70783 -0.26512,1.26938 l -1.34394,3.97304 c -1.03509,2.93422 -1.03509,2.93422 -1.03509,3.84908 0,1.62268 1.25508,2.70488 3.17298,2.70488 2.33532,0 4.2518,-1.2074 6.21339,-3.91105 -0.32999,1.01898 -0.39625,1.4355 -0.39625,1.99705 0,1.14419 0.90252,1.93508 2.13647,1.93508 2.04903,0 3.68065,-1.20742 6.05969,-4.41063 l -1.01396,-0.52066 c -1.6302,2.14334 -2.93042,3.3086 -3.67923,3.3086 -0.28628,0 -0.59512,-0.31239 -0.59512,-0.68675 0,-0.33346 0.13255,-0.89502 0.39627,-1.7479 z"
       style="fill:none;stroke:#000000;stroke-width:1.35921;stroke-linecap:butt;stroke-linejoin:miter;stroke-miterlimit:4;stroke-dasharray:none;stroke-opacity:1" /><text
       id="text19"
       xml:space="preserve"
       transform="scale(1.0665843,0.93757243)"
       x="186.981"
       y="243.75797"
       style="font-size:15.8662px;stroke-width:1.32218"><tspan
         style="font-style:italic;font-variant:normal;font-weight:normal;font-size:31.3505px;font-family:C059;writing-mode:lr-tb;fill:#000000;fill-opacity:1;fill-rule:nonzero;stroke:none;stroke-width:1.32218"
         x="186.981"
         y="243.75797"
         id="tspan19">P</tspan></text><path
       id="path20"
       d="m 207.69387,219.20135 h 0.59512 c 6.23596,0 7.42617,-0.14628 9.67264,-1.20741 2.33674,-1.10203 3.63695,-2.99497 3.63695,-5.34655 0,-1.83095 -0.86023,-3.30735 -2.46787,-4.26436 -1.23394,-0.74998 -3.01927,-1.06112 -5.79598,-1.06112 h -9.84893 l -0.19885,1.37227 h 0.86023 c 2.18019,0 2.64415,0.14629 2.64415,0.79089 0,0.25041 -0.13255,0.8318 -0.30883,1.45657 l -4.27436,13.98063 c -0.4414,1.49749 -0.46396,1.56071 -0.77139,1.83095 -0.3314,0.29131 -1.03651,0.37438 -2.7767,0.41652 h -0.17629 l -0.15371,1.37228 h 10.64147 l 0.15513,-1.37228 h -0.86023 c -2.1802,0 -2.64415,-0.14628 -2.64415,-0.81197 0,-0.22932 0.13256,-0.72767 0.3314,-1.4355 z m 0.4414,-1.3946 2.33532,-7.6969 c 0.32999,-1.14418 0.66138,-1.35244 2.13788,-1.41567 h 0.39628 c 1.16765,0 2.31273,0.14629 2.90784,0.35455 1.27907,0.47849 1.93905,1.58053 1.93905,3.26644 0,1.87185 -0.83625,3.61974 -2.20274,4.53458 -0.92511,0.58263 -2.44674,0.99916 -3.8781,0.99916 l -2.9967,-0.0422 z"
       style="fill:none;stroke:#000000;stroke-width:1.35921;stroke-linecap:butt;stroke-linejoin:miter;stroke-miterlimit:4;stroke-dasharray:none;stroke-opacity:1" /><text
       id="text20"
       xml:space="preserve"
       transform="scale(1.0665843,0.93757243)"
       x="206.70052"
       y="243.75797"
       style="font-size:15.8662px;stroke-width:1.32218"><tspan
         style="font-style:italic;font-variant:normal;font-weight:normal;font-size:31.3505px;font-family:C059;writing-mode:lr-tb;fill:#000000;fill-opacity:1;fill-rule:nonzero;stroke:none;stroke-width:1.32218"
         x="206.70052"
         y="243.75797"
         id="tspan20">o</tspan></text><path
       id="path21"
       d="m 229.58603,214.7275 c -2.20416,0 -4.29692,0.87395 -6.14853,2.5177 -1.87277,1.6859 -2.79787,3.76602 -2.79787,6.24157 0,3.37058 2.2916,5.49284 5.9497,5.49284 2.44531,0 4.45064,-0.79089 6.08084,-2.41357 1.80648,-1.74789 2.84299,-4.07841 2.84299,-6.28373 0,-3.05818 -2.66671,-5.55481 -5.92713,-5.55481 z m -0.15513,1.12435 c 1.82906,0 2.90928,1.35245 2.90928,3.59866 0,1.53963 -0.66139,3.89123 -1.56534,5.51391 -1.1451,2.01813 -2.37902,2.91191 -4.16435,2.91191 -1.93905,0 -2.97415,-1.10204 -2.97415,-3.09909 0,-2.47679 1.14509,-5.72217 2.51158,-7.34486 0.94768,-1.06112 2.00533,-1.58053 3.28298,-1.58053 z"
       style="fill:none;stroke:#000000;stroke-width:1.35921;stroke-linecap:butt;stroke-linejoin:miter;stroke-miterlimit:4;stroke-dasharray:none;stroke-opacity:1" /><text
       id="text21"
       xml:space="preserve"
       transform="scale(1.0665843,0.93757243)"
       x="222.37573"
       y="243.75797"
       style="font-size:15.8662px;stroke-width:1.32218"><tspan
         style="font-style:italic;font-variant:normal;font-weight:normal;font-size:31.3505px;font-family:C059;writing-mode:lr-tb;fill:#000000;fill-opacity:1;fill-rule:nonzero;stroke:none;stroke-width:1.32218"
         x="222.37573"
         y="243.75797"
         id="tspan21">r</tspan></text><path
       id="path22"
       d="m 244.67391,214.7275 -6.05969,0.43758 -0.13256,1.06113 h 0.8151 c 1.32278,0 1.93904,0.27026 1.93904,0.83181 0,0.18718 -0.13115,0.81196 -0.35255,1.37351 l -3.39298,10.11049 h 2.90928 l 1.56392,-4.63872 c 1.23394,-3.68296 4.01065,-7.38577 5.55202,-7.38577 0.46395,0 0.5951,0.20827 0.5951,0.99791 0,0.79089 0.57396,1.26939 1.5865,1.26939 1.12393,0 1.96161,-0.79089 1.96161,-1.89292 0,-1.24832 -1.10138,-2.16441 -2.64416,-2.16441 -1.87276,0 -3.32669,0.97808 -5.11202,3.41271 z"
       style="fill:none;stroke:#000000;stroke-width:1.35921;stroke-linecap:butt;stroke-linejoin:miter;stroke-miterlimit:4;stroke-dasharray:none;stroke-opacity:1" /><text
       id="text22"
       xml:space="preserve"
       transform="scale(1.0665843,0.93757243)"
       x="236.54614"
       y="243.75797"
       style="font-size:15.8662px;stroke-width:1.32218"><tspan
         style="font-style:italic;font-variant:normal;font-weight:normal;font-size:31.3505px;font-family:C059;writing-mode:lr-tb;fill:#000000;fill-opacity:1;fill-rule:nonzero;stroke:none;stroke-width:1.32218"
         x="236.54614"
         y="243.75797"
         id="tspan22">t</tspan></text><path
       id="path23"
       d="m 261.28764,210.29704 h -2.90786 l -1.63163,4.86804 h -3.15042 l -0.46254,1.37353 h 3.15042 l -2.51159,7.42666 c -0.50628,1.49748 -0.63883,2.10119 -0.63883,2.78795 0,1.26939 1.0351,2.22639 2.40159,2.22639 1.5865,0 3.45926,-0.9161 4.62691,-2.28838 0.46256,-0.56278 0.79395,-1.02022 1.67534,-2.26853 l -1.01395,-0.58263 c -2.11531,2.78795 -3.04041,3.57884 -4.14321,3.57884 -0.46254,0 -0.76998,-0.3124 -0.76998,-0.81197 0,-0.24917 0.0212,-0.43635 0.0875,-0.68552 l 3.19554,-9.38281 h 3.63554 l 0.46254,-1.37353 h -3.63553 z"
       style="fill:none;stroke:#000000;stroke-width:1.35921;stroke-linecap:butt;stroke-linejoin:miter;stroke-miterlimit:4;stroke-dasharray:none;stroke-opacity:1" /><text
       id="text23"
       xml:space="preserve"
       transform="scale(1.0665843,0.93757243)"
       x="247.362"
       y="243.75797"
       style="font-size:15.8662px;stroke-width:1.32218"><tspan
         style="font-style:italic;font-variant:normal;font-weight:normal;font-size:31.3505px;font-family:C059;writing-mode:lr-tb;fill:#000000;fill-opacity:1;fill-rule:nonzero;stroke:none;stroke-width:1.32218"
         x="247.362"
         y="243.75797"
         id="tspan23">a</tspan></text><path
       id="path24"
       d="m 277.07498,215.16508 -0.90254,2.64167 c -0.2214,-1.80985 -1.89533,-3.07925 -4.07692,-3.07925 -2.07161,0 -3.94437,0.91609 -5.53087,2.70488 -1.69648,1.93508 -2.68786,4.41064 -2.68786,6.76223 0,2.871 1.96161,4.785 4.93575,4.785 2.11532,0 3.41554,-0.72891 5.08946,-2.85116 -0.13115,0.43759 -0.17628,0.64584 -0.17628,0.93716 0,1.14419 0.83766,1.914 2.05045,1.914 1.47508,0 2.73159,-0.70784 3.92181,-2.14333 0.68254,-0.85288 1.23393,-1.66484 1.6302,-2.43465 l -1.03509,-0.49833 c -1.27907,2.26729 -2.44673,3.45362 -3.30555,3.45362 -0.41882,0 -0.70511,-0.31239 -0.70511,-0.7289 0,-0.3124 0.13257,-0.81073 0.35256,-1.58054 l 3.34925,-9.8824 z m -4.40692,1.1851 c 1.56534,0 2.53415,0.957 2.53415,2.60076 0,1.70698 -0.66138,4.03626 -1.69648,5.88827 -1.0351,1.83096 -2.24788,2.64168 -3.9218,2.64168 -1.67534,0 -2.66672,-1.08096 -2.66672,-2.871 0,-2.60076 1.30022,-5.6168 3.06298,-7.23948 0.74883,-0.66569 1.67534,-1.02023 2.68787,-1.02023 z"
       style="fill:none;stroke:#000000;stroke-width:1.35921;stroke-linecap:butt;stroke-linejoin:miter;stroke-miterlimit:4;stroke-dasharray:none;stroke-opacity:1" /><text
       id="text24"
       xml:space="preserve"
       transform="scale(1.0665843,0.93757243)"
       x="265.35724"
       y="243.75797"
       style="font-size:15.8662px;stroke-width:1.32218"><tspan
         style="font-style:italic;font-variant:normal;font-weight:normal;font-size:31.3505px;font-family:C059;writing-mode:lr-tb;fill:#000000;fill-opacity:1;fill-rule:nonzero;stroke:none;stroke-width:1.32218"
         x="265.35724"
         y="243.75797"
         id="tspan24">g</tspan></text><path
       id="path25"
       d="m 295.80544,215.85185 c 0.52883,-0.41651 0.83626,-0.56156 1.23394,-0.56156 0.32999,0 0.59511,0.14505 0.88138,0.45744 0.52883,0.6446 0.72626,0.7698 1.25509,0.7698 0.77139,0 1.34393,-0.56155 1.34393,-1.29046 0,-0.85288 -0.94766,-1.53962 -2.11532,-1.53962 -1.16766,0 -2.07019,0.39544 -3.81181,1.60284 -1.03508,-0.41651 -1.80648,-0.56279 -2.86414,-0.56279 -3.72437,0 -6.87479,2.33052 -6.87479,5.03541 0,1.39334 0.63883,2.37143 2.09275,3.03711 -1.54136,0.18718 -2.24647,0.39545 -3.01784,0.97807 -0.66141,0.4785 -1.10139,1.26939 -1.10139,1.97597 0,0.99916 0.52742,1.60286 1.82764,2.16442 -1.38766,0.27024 -1.93904,0.45743 -2.64416,0.8318 -0.99137,0.52064 -1.6302,1.47765 -1.6302,2.43465 0,0.83179 0.46254,1.64374 1.21137,2.14209 1.32278,0.83304 2.84299,1.14417 5.64086,1.14417 3.3281,0 5.22343,-0.35328 6.85364,-1.28921 1.45392,-0.81197 2.29159,-2.08011 2.29159,-3.45363 0,-1.16527 -0.63883,-2.10118 -1.7416,-2.66274 -1.07881,-0.49957 -2.13648,-0.70784 -4.42808,-0.81196 -2.97555,-0.14504 -3.19554,-0.18719 -3.68066,-0.27025 -0.83626,-0.16611 -1.23252,-0.52065 -1.23252,-1.01898 0,-0.70783 0.81509,-1.18633 2.00391,-1.18633 0.4414,0 0.94766,0.0422 1.38906,0.0831 1.36509,0.18717 1.56392,0.20826 2.40159,0.20826 1.87277,0 3.34926,-0.41652 4.51692,-1.22725 1.32279,-0.91609 2.15904,-2.3925 2.15904,-3.74495 0,-1.37351 -0.6614,-2.43463 -1.9602,-3.24536 z m -3.85694,0 c 1.74161,0 2.84299,0.89378 2.84299,2.35035 0,1.37352 -0.52883,2.87099 -1.36649,3.78709 -0.59511,0.62354 -1.54277,0.99791 -2.57787,0.99791 -1.80649,0 -2.93044,-0.99791 -2.93044,-2.64167 0,-2.6429 1.63022,-4.49368 4.03181,-4.49368 z m -4.07551,12.60711 c 1.49764,0 3.9218,0.29132 4.69319,0.56155 0.83766,0.3124 1.23394,0.81197 1.23394,1.53964 0,1.74789 -2.11533,2.68381 -5.94969,2.68381 -3.26042,0 -4.75947,-0.70659 -4.75947,-2.2673 0,-1.58178 1.74019,-2.5177 4.78203,-2.5177 z"
       style="fill:none;stroke:#000000;stroke-width:1.35921;stroke-linecap:butt;stroke-linejoin:miter;stroke-miterlimit:4;stroke-dasharray:none;stroke-opacity:1" /><text
       id="text25"
       xml:space="preserve"
       transform="scale(1.0665843,0.93757243)"
       x="281.28323"
       y="243.75797"
       style="font-size:15.8662px;stroke-width:1.32218"><tspan
         style="font-style:italic;font-variant:normal;font-weight:normal;font-size:31.3505px;font-family:C059;writing-mode:lr-tb;fill:#000000;fill-opacity:1;fill-rule:nonzero;stroke:none;stroke-width:1.32218"
         x="281.28323"
         y="243.75797"
         id="tspan25">e</tspan></text><path
       id="path26"
       d="m 311.36151,225.13053 c -1.98277,1.7888 -3.41554,2.47555 -5.20087,2.47555 -2.00532,0 -3.23785,-1.18632 -3.23785,-3.05817 0,-0.20827 0.0436,-0.62478 0.0648,-0.99916 3.94436,-0.83179 4.56203,-0.9979 6.08225,-1.60161 2.62159,-0.99914 4.03179,-2.49663 4.03179,-4.20236 0,-1.7888 -1.60763,-3.01728 -3.98808,-3.01728 -4.89203,0 -9.29894,4.34865 -9.29894,9.1758 0,3.16231 2.18159,5.07631 5.79597,5.07631 2.55531,0 4.73691,-0.99915 6.54339,-3.05819 z m -8.19758,-2.72596 c 0.77139,-3.97304 2.79928,-6.51182 5.2883,-6.51182 1.1028,0 1.82906,0.68677 1.82906,1.68591 0,1.41443 -1.03511,2.68382 -2.88671,3.55776 -1.18881,0.62354 -2.02649,0.85287 -4.23065,1.26815 z"
       style="fill:none;stroke:#000000;stroke-width:1.35921;stroke-linecap:butt;stroke-linejoin:miter;stroke-miterlimit:4;stroke-dasharray:none;stroke-opacity:1" /><g
       id="g56"
       clip-path="url(#clipPath57)"
       transform="translate(7.475946,19.523286)"><path
         d="m 221.375,183.348 c -1.246,1.254 -2.73,2.336 -4.09,3.476 -1.637,1.375 -3.316,2.707 -5.015,4.02 -3.157,2.437 -6.375,4.797 -9.547,7.218 -0.621,-1.468 -1.969,-2.722 -3.368,-3.582 -2.125,-1.308 -4.691,-1.976 -7.273,-2.324 1.59,-1.914 4.266,-2.707 6.574,-3.648 2.688,-1.098 4.836,-2.828 7.137,-4.481 2.269,-1.629 4.734,-3.101 7.672,-3.3 2.746,-0.184 6.121,0.546 7.91,2.621"
         style="fill:#000000;fill-opacity:1;fill-rule:nonzero;stroke:none"
         transform="scale(1.3333333)"
         clip-path="url(#clipPath55)"
         id="path56" /></g><g
       id="g59"
       clip-path="url(#clipPath60)"
       transform="translate(7.475946,19.523286)"><path
         d="m 217.961,178.191 c -0.215,0.625 -0.707,1.196 -1.109,1.727 -0.77,-0.145 -1.555,-0.227 -2.325,-0.27 -3.25,-0.171 -6.152,1.266 -8.679,3 -2.539,1.735 -4.809,3.719 -7.727,4.911 -2.707,1.109 -5.613,2.035 -7.324,4.425 -0.004,0.008 -0.008,0.012 -0.012,0.02 -0.851,-0.082 -1.691,-0.133 -2.512,-0.168 -0.281,-0.012 -0.562,-0.02 -0.839,-0.027 1.914,-1.926 4.32,-3.364 6.718,-4.743 2.649,-1.523 5.18,-3.097 7.614,-4.91 2.437,-1.812 4.925,-3.715 7.894,-4.73 2.625,-0.899 6.18,-1.192 8.301,0.765"
         style="fill:#000000;fill-opacity:1;fill-rule:nonzero;stroke:none"
         transform="scale(1.3333333)"
         clip-path="url(#clipPath58)"
         id="path59" /></g><g
       id="g62"
       clip-path="url(#clipPath63)"
       transform="translate(7.475946,19.523286)"><path
         d="m 208.254,176.781 c -2.274,0.934 -4.316,2.407 -6.231,3.817 -1.265,0.933 -2.511,1.89 -3.824,2.769 -1.371,0.926 -2.832,1.742 -4.277,2.571 -2.899,1.656 -5.844,3.382 -8.008,5.859 -2.125,0.012 -4.254,0.144 -6.379,0.293 1.887,-1.746 4.102,-3.16 6.262,-4.606 2.48,-1.656 4.687,-3.511 6.918,-5.441 2.172,-1.879 4.48,-3.691 7.285,-4.699 2.562,-0.918 5.539,-1.114 8.254,-0.563"
         style="fill:#000000;fill-opacity:1;fill-rule:nonzero;stroke:none"
         transform="scale(1.3333333)"
         clip-path="url(#clipPath61)"
         id="path62" /></g><g
       id="g65"
       clip-path="url(#clipPath66)"
       transform="translate(7.475946,19.523286)"><path
         d="m 172.652,204.012 c -0.136,-0.02 -0.269,-0.024 -0.336,-0.051 -0.761,-0.066 -1.523,-0.117 -2.285,-0.16 l -1.906,-0.086 c -0.031,-0.016 -0.277,0.023 -0.301,0.004 -1.031,-0.024 -2.062,-0.02 -3.09,0.019 l -1.093,0.055 c -0.95,0.059 -1.899,0.148 -2.844,0.269 -4.277,0.563 -8.344,1.77 -12.215,3.536 -0.668,0.304 -1.254,-0.621 -0.582,-0.926 4.301,-1.961 8.848,-3.289 13.629,-3.777 3.641,-0.372 7.309,-0.305 10.953,0.011 0.066,0.004 0.137,0.008 0.203,0.02 0.539,0.047 1.074,0.101 1.61,0.16 3.574,0.387 7.121,1.008 10.707,1.301 3.613,0.297 7.425,0.371 10.898,-0.742 2.707,-0.868 6.68,-2.063 5.805,-5.262 -0.844,-3.098 -4.543,-3.738 -7.567,-4.531 -4.031,-1.059 -8.254,-1.118 -12.414,-1.012 -4.129,0.105 -8.273,-0.594 -12.406,-0.692 -3.891,-0.093 -7.852,-1.515 -11.27,-3.339 -0.039,-0.016 -0.086,-0.036 -0.125,-0.063 -0.019,-0.012 -0.039,-0.023 -0.058,-0.035 -0.004,-0.004 -0.012,-0.004 -0.016,-0.008 -0.015,-0.008 -0.023,-0.015 -0.039,-0.027 -5.629,-3.586 -11.699,-8.231 -18.855,-8.438 -3.77,-0.109 -7.41,0.832 -11.071,1.524 -1.796,0.34 -3.652,0.679 -5.488,0.715 -1.828,0.035 -3.652,0.007 -5.48,0 -4.262,-0.024 -8.493,0.187 -12.512,1.617 -3.832,1.367 -7.504,3.136 -10.867,5.32 -3.371,2.188 -6.25,4.828 -9.219,7.445 -0.191,0.168 -0.379,0.336 -0.57,0.504 l 15.57,21.508 c 0.93,-0.625 1.894,-1.203 2.902,-1.715 3.649,-1.844 7.578,-2.707 11.735,-2.652 4.218,0.055 8.449,0.75 12.55,1.617 4.59,0.969 9.125,2.141 13.676,3.25 4.524,1.102 9.082,2.164 13.699,2.883 4.469,0.695 9.25,1.105 13.719,0.176 0.043,-0.008 0.086,-0.016 0.129,-0.016 4.238,-2.344 7.754,-5.57 11.242,-8.769 1.739,-1.594 3.477,-3.196 5.317,-4.688 1.414,-1.152 2.879,-2.355 4.492,-3.293 -4.457,-0.008 -8.957,-0.84 -13.375,-1.379 z"
         style="fill:#000000;fill-opacity:1;fill-rule:nonzero;stroke:none"
         transform="scale(1.3333333)"
         clip-path="url(#clipPath64)"
         id="path65" /></g><path
       id="path67"
       d="m 119.28387,107.46102 c 0,0 -11.46787,-5.52102 -10.80687,-17.56502 0.5,-9.104 5.488,-12.189 5.488,-12.189 0,0 9.902,-9.3 4.711,-2.708 -6.656,8.454 -0.949,14.741 3.449,19.205 3.566,3.621 17.613,4.385 17.613,4.385 0,0 -12.64,0.674 -15.926,-0.141 -4.328,-1.074 -9.761,-8.187 -9.472,-12.059 0.238,-3.191 -2.457,4.62 -1.992,7.258 0.496,2.834 7.39263,13.59623 7.39263,13.59623 0,0 -2.18074,-6.28902 -0.45676,0.21779 z"
       style="fill:#000000;fill-opacity:1;fill-rule:nonzero;stroke:#000000;stroke-width:0.753681;stroke-linecap:butt;stroke-linejoin:miter;stroke-miterlimit:4;stroke-dasharray:none;stroke-opacity:1"
       transform="scale(1.3333333,1.328904)"
       clip-path="url(#clipPath68)"
       sodipodi:nodetypes="ccccccccccc" /><path
       style="fill:#ffffff;fill-opacity:1;stroke:#000000;stroke-width:1.00157;stroke-opacity:0"
       d="m 123.81134,194.16645 1.12039,-2.26866 1.34383,-2.14158 1.79421,-3.14757 1.65596,-2.71 3.14353,-4.64744 3.26751,-4.3353 3.17343,-3.58582 2.712,-2.8312 2.4755,-2.018 3.09148,-2.19816 2.73503,-1.93943 5.47878,-3.43835 2.97482,-1.48328 3.35211,-1.25729 2.98509,-0.99197 2.77562,-0.5088 3.82456,-0.47589 3.90772,-0.39021 2.17488,-0.16512 3.04507,-0.13699 2.51852,0.0344 1.12632,0.13694 0.41961,0.55138 -0.16257,0.70402 -1.02821,0.81335 -1.12543,0.73982 -1.48293,1.00697 -1.47305,0.60976 -2.00972,0.89151 -4.24248,1.56404 -3.36632,1.30176 -3.04093,0.95827 -2.9477,1.16955 -2.70547,1.05534 -2.9488,1.38287 -2.24572,1.2875 -2.18186,1.56563 -1.6775,1.05155 -2.02039,1.80821 -1.6615,1.55521 -1.47614,1.47829 -1.8491,1.62062 -1.39149,1.2879 -1.25953,0.98878 -0.95804,1.23467 -1.21053,1.14652 -1.44824,1.80225 -1.20949,1.91666 -1.30521,2.32863 -0.83718,1.47021 -0.82138,1.86421 -0.95697,1.93981 -0.72038,1.52277 -0.88509,1.896 c 0,0 -0.931,1.54564 -0.98973,1.60895 -0.0587,0.0633 -1.28431,0.74336 -1.35266,0.74336 -0.0684,0 -2.01179,0.11025 -2.09419,0.0872 -0.0824,-0.0231 -1.7898,-0.32531 -1.7898,-0.32531 0,0 -1.33476,-0.67681 -1.40875,-0.77557 -0.074,-0.0988 -1.16206,-1.74694 -1.16206,-1.74694 z"
       id="path69"
       sodipodi:nodetypes="cccccccccccccccccccccccccccccccccccccccccccccccccccccccssscscc" /><path
       style="fill:#949494;fill-opacity:0;stroke:#070707;stroke-width:1.00308;stroke-opacity:1"
       d="m 103.45838,204.08085 210.86963,2.11033 -1.35926,-4.0428"
       id="path70"
       sodipodi:nodetypes="ccc" /><path
       style="fill:#007c02;fill-opacity:1;stroke:#007c02;stroke-width:1.00157;stroke-opacity:1"
       d="m 140.16341,310.73955 -20.22829,-27.98437 4.31302,-3.85791 20.41641,29.25311 c 0,0 -2.33764,0.99482 -4.50114,2.58917 z"
       id="path71"
       sodipodi:nodetypes="ccccc" /></g></svg>
