<?xml version="1.0" encoding="UTF-8" standalone="no"?>
<!-- Created with Inkscape (http://www.inkscape.org/) -->

<svg
   version="1.1"
   id="svg1"
   width="120"
   height="120"
   viewBox="0 0 120 120"
   sodipodi:docname="menu(1).svg"
   inkscape:version="1.3.1 (9b9bdc1480, 2023-11-25, custom)"
   xmlns:inkscape="http://www.inkscape.org/namespaces/inkscape"
   xmlns:sodipodi="http://sodipodi.sourceforge.net/DTD/sodipodi-0.dtd"
   xmlns="http://www.w3.org/2000/svg"
   xmlns:svg="http://www.w3.org/2000/svg">
  <defs
     id="defs1">
    <clipPath
       clipPathUnits="userSpaceOnUse"
       id="clipPath1">
      <path
         d="M 0,0 H 91 V 91 H 0 Z"
         id="path1" />
    </clipPath>
    <clipPath
       clipPathUnits="userSpaceOnUse"
       id="clipPath3">
      <path
         d="M -2.574,-35.773 134.488,-11.699 120.996,65.125 -16.066,41.055 Z"
         transform="scale(1.3333333)"
         id="path3" />
    </clipPath>
  </defs>
  <sodipodi:namedview
     id="namedview1"
     pagecolor="#ffffff"
     bordercolor="#000000"
     borderopacity="0.25"
     inkscape:showpageshadow="2"
     inkscape:pageopacity="0.0"
     inkscape:pagecheckerboard="0"
     inkscape:deskcolor="#d1d1d1"
     inkscape:zoom="4.7088652"
     inkscape:cx="53.622261"
     inkscape:cy="58.400482"
     inkscape:window-width="1854"
     inkscape:window-height="1011"
     inkscape:window-x="0"
     inkscape:window-y="0"
     inkscape:window-maximized="1"
     inkscape:current-layer="g1">
    <inkscape:page
       x="0"
       y="0"
       inkscape:label="1"
       id="page1"
       width="120"
       height="120"
       margin="0"
       bleed="0" />
  </sodipodi:namedview>
  <g
     id="g1"
     inkscape:groupmode="layer"
     inkscape:label="1">
    <g
       id="g3"
       clip-path="url(#clipPath3)"
       transform="matrix(0.73100619,0,0,0.57838047,15.757568,24.974722)">
      <g
         id="g2">
        <path
           d="m 11.883,48.145 h 4.824 V 37.938 l 3.691,4.039 3.696,-4.039 v 10.175 h 4.82 V 25.477 l -8.516,9.328 -8.515,-9.297 z m 19.883,0 h 10.957 l 1.218,-4.887 H 36.648 V 39.629 H 41.5 l 1.223,-4.887 h -6.075 v -3.629 h 6.075 l 1.218,-4.886 H 31.766 Z m 31.148,0.968 V 26.227 h -4.82 v 11.211 l -12.18,-12.18 v 22.887 h 4.824 V 36.934 Z m 9.895,-0.906 c 4.039,0 7.293,-3.258 7.324,-7.297 V 26.227 H 75.281 V 40.91 c 0,1.348 -1.093,2.477 -2.472,2.477 -1.348,0 -2.473,-1.129 -2.473,-2.477 V 26.227 H 65.512 V 40.91 c 0,4.039 3.289,7.297 7.297,7.297 z"
           style="fill:#d66826;fill-opacity:1;fill-rule:evenodd;stroke:none"
           transform="scale(1.3333333)"
           clip-path="url(#clipPath1)"
           id="path2" />
      </g>
    </g>
    <path
       id="path4"
       d="m 17.900002,46.091841 c 4.80391,-1.95876 5.672457,-11.937649 7.013278,-21.426888 0.554891,-3.971884 0.936552,-7.372836 1.258538,-9.80368 l -0.837478,-0.08584 c 0,0 -0.997692,4.872637 -1.687901,9.805562 -0.701373,5.040751 -1.826608,11.549289 -3.061323,11.29771 -1.226303,-0.245894 0.06705,-5.556033 1.127224,-11.859819 0.832307,-4.951849 1.345719,-9.791045 1.345719,-9.791045 L 22.317886,14.08055 c 0,0 -0.807625,4.575094 -1.775978,9.485935 -1.188344,6.009062 -2.020573,11.980486 -3.250806,11.733841 -1.230535,-0.252135 0.194891,-6.109865 1.197459,-11.808348 0.885957,-5.012161 1.507211,-9.967805 1.507211,-9.967805 l -0.60537,-0.163542 c 0,0 -1.004032,4.962381 -2.018069,9.948637 -1.139995,5.615123 -1.955189,11.526004 -3.225011,11.266339 -1.272134,-0.254676 0.258884,-6.054157 1.242287,-11.794324 0.848059,-4.97734 1.436248,-9.817137 1.436248,-9.817137 l -0.666765,-0.09114 c 0,0 -0.866242,4.406378 -2.085005,9.851636 -1.896961,8.487992 -5.1613213,18.436703 -1.791597,22.190091 -0.09358,1.175395 -1.070677,13.1373 -5.2971452,29.133005 -3.9785327,15.056248 -9.3930728,22.609403 -2.614351,24.067445 l -9.972e-4,0.0052 0.1034508,0.01982 C 11.284294,99.43064 9.2350912,90.366896 11.436721,74.948365 13.75107,58.750455 17.454909,47.42248 17.900008,46.091809"
       style="fill:#d66826;fill-opacity:1;fill-rule:nonzero;stroke:none;stroke-width:1.33333" />
    <path
       id="path5"
       d="m 106.85888,18.070144 c -3.87123,-5.96209 -7.003788,-6.24371 -8.093389,-6.121344 l -10e-4,-0.0053 c 0,0 -0.0845,0.0052 -0.22531,0.04271 -0.12839,0.02433 -0.19321,0.04748 -0.19321,0.04748 l 0.002,0.01046 c -1.02619,0.342406 -3.686142,1.91725 -4.879869,8.987182 -1.475559,8.719254 -0.371063,18.571228 9.307298,22.594073 0,0 3.92955,11.84071 6.73652,29.193523 2.5027,15.5038 1.12961,24.563257 6.8904,23.381896 l 0.0877,-0.01663 -9.8e-4,-0.0053 c 5.72774,-1.355591 0.7971,-9.019507 -3.21234,-24.188892 -4.49008,-16.982258 -5.71904,-29.424355 -5.71904,-29.424355 7.17122,-7.75225 4.08769,-17.112445 -0.69883,-24.495624"
       style="fill:#2d698c;fill-opacity:1;fill-rule:nonzero;stroke:none;stroke-width:1.33333" />
    <path
       id="path6"
       d="m 48.201301,40.207835 c 0.283228,0.193122 0.166754,1.924464 -1.305396,3.058986 -0.999255,0.769674 -2.125803,1.414353 -2.675075,1.713326 0.455075,-0.811338 1.65609,-2.839401 2.386755,-3.380482 0,0 -1.399593,0.767984 -2.771819,3.279698 -0.09738,-0.681839 -0.236129,-2.454846 0.713482,-3.54151 1.190831,-1.36762 3.366279,-1.325955 3.652053,-1.130018"
       style="fill:#299740;fill-opacity:1;fill-rule:nonzero;stroke:none;stroke-width:0.598624"
       inkscape:transform-center-x="-0.80742793"
       inkscape:transform-center-y="1.4607429" />
    <path
       id="path6-9"
       d="m 38.801151,86.304918 c 0.253537,0.1732 0.149273,1.725942 -1.168551,2.743431 -0.894503,0.690276 -1.902955,1.268452 -2.394646,1.536584 0.407369,-0.727643 1.482482,-2.546498 2.13655,-3.031762 0,0 -1.252873,0.688761 -2.481247,2.941375 -0.08717,-0.611503 -0.211376,-2.201612 0.638686,-3.17618 1.065996,-1.22654 3.013391,-1.189174 3.269208,-1.013448"
       style="fill:#299740;fill-opacity:1;fill-rule:nonzero;stroke:none;stroke-width:0.536371"
       inkscape:transform-center-x="-0.72278565"
       inkscape:transform-center-y="1.3100572" />
    <path
       id="path7"
       d="m 84.020415,41.042382 c -0.188311,0.288559 0.470428,2.06714 2.127425,2.813997 1.127065,0.504792 2.324835,0.842059 2.904469,0.988921 -0.662239,-0.709218 -2.368239,-2.473778 -3.185886,-2.822115 0,0 1.479187,0.383022 3.489004,2.602929 -0.133708,-0.743905 -0.579634,-2.640567 -1.763404,-3.493696 -1.487586,-1.076005 -3.382597,-0.377856 -3.571608,-0.09004"
       style="fill:#299740;fill-opacity:1;fill-rule:nonzero;stroke:none;stroke-width:0.718771" />
    <path
       id="path8"
       d="m 19.18023,93.476313 h 3.296848 v -2.741504 h 0.822419 c 3.170529,0 5.749774,-2.144031 5.749774,-4.778258 0,-2.636452 -2.579245,-4.78123 -5.749774,-4.78123 H 19.18023 Z m 3.296848,-5.44724 v -4.147268 h 0.822419 c 1.37518,0 2.474428,0.931222 2.474428,2.074746 0,1.141301 -1.119853,2.072522 -2.495032,2.072522 z m 14.558091,5.46512 c 4.077161,0 7.398198,-2.759384 7.398198,-6.149001 0,-3.393356 -3.321037,-6.134859 -7.398198,-6.134859 -4.077162,0 -7.394615,2.758636 -7.394615,6.134859 0,3.389617 3.317453,6.149001 7.394615,6.149001 z m -4.139874,-6.149001 c 0,-1.883296 1.858061,-3.428366 4.139874,-3.428366 2.281813,0 4.143457,1.54507 4.143457,3.428366 0,1.897446 -1.861644,3.442517 -4.143457,3.442517 -2.281813,0 -4.139874,-1.545071 -4.139874,-3.442517 z m 12.825455,6.131121 h 3.296848 v -2.741504 h 1.246173 l 1.501499,2.741504 h 3.824523 l -2.092782,-3.829156 c 1.266778,-0.879078 2.092782,-2.21481 2.092782,-3.690606 0,-2.636452 -2.579247,-4.78123 -5.749775,-4.78123 H 45.72075 Z m 3.296848,-5.465119 v -4.129389 h 0.82242 c 1.37518,0 2.474427,0.931222 2.474427,2.074746 0,1.071277 -0.972928,1.950346 -2.2191,2.054643 z m 10.3134,5.465119 h 3.271763 v -9.559487 h 3.296848 V 81.175321 H 56.03415 v 2.741505 h 3.296848 z m 4.752658,0 h 3.824522 l 3.170528,-5.816748 3.149923,5.816748 h 3.824523 L 71.078706,80.648627 Z m 20.517502,0 h 0.02061 c 3.594279,0 6.53009,-2.441271 6.551593,-5.44724 v -2.072522 h -6.572199 l -0.82242,2.738532 h 4.035052 c -0.378058,1.178545 -1.669922,2.074746 -3.212632,2.074746 -2.281812,0 -4.139872,-1.54507 -4.139872,-3.445507 0,-1.89669 1.85806,-3.442517 4.139872,-3.442517 0.993534,0 1.924351,0.300223 2.641952,0.809047 l 2.302422,-1.932467 c -1.30888,-0.986338 -3.040623,-1.583064 -4.944374,-1.583064 -4.07716,0 -7.394614,2.759383 -7.394614,6.149001 0,3.393356 3.317454,6.151991 7.394614,6.151991 z m 7.884657,0 h 7.394632 l 0.825113,-2.741504 h -4.923792 v -2.039726 h 3.276257 l 0.822422,-2.738532 h -4.098679 v -2.039725 h 4.098679 l 0.825113,-2.741505 h -8.219745 z"
       style="fill:#2d698c;fill-opacity:1;fill-rule:evenodd;stroke:none;stroke-width:0.816948" />
    <path
       id="path9"
       d="M 92.369153,62.087196 H 27.926898 c 0.415514,7.451471 9.676883,13.714142 22.3605,15.889036 v 2.917564 H 70.00552 V 77.976232 C 82.692269,75.801338 91.953633,69.538667 92.369153,62.087196"
       style="fill:#2d698c;fill-opacity:1;fill-rule:nonzero;stroke:none;stroke-width:0.96132" />
  </g>
</svg>
