<?xml version="1.0" encoding="UTF-8" standalone="no"?>
<!-- Created with Inkscape (http://www.inkscape.org/) -->

<svg
   version="1.1"
   id="svg1"
   width="120"
   height="63"
   viewBox="0 0 120 63"
   sodipodi:docname="menu(1).svg"
   inkscape:version="1.3.1 (9b9bdc1480, 2023-11-25, custom)"
   xmlns:inkscape="http://www.inkscape.org/namespaces/inkscape"
   xmlns:sodipodi="http://sodipodi.sourceforge.net/DTD/sodipodi-0.dtd"
   xmlns="http://www.w3.org/2000/svg"
   xmlns:svg="http://www.w3.org/2000/svg">
  <defs
     id="defs1">
    <clipPath
       clipPathUnits="userSpaceOnUse"
       id="clipPath1">
      <path
         d="M 0,0 H 91 V 91 H 0 Z"
         id="path1" />
    </clipPath>
    <clipPath
       clipPathUnits="userSpaceOnUse"
       id="clipPath3">
      <path
         d="M -2.574,-35.773 134.488,-11.699 120.996,65.125 -16.066,41.055 Z"
         transform="scale(1.3333333)"
         id="path3" />
    </clipPath>
  </defs>
  <sodipodi:namedview
     id="namedview1"
     pagecolor="#ffffff"
     bordercolor="#000000"
     borderopacity="0.25"
     inkscape:showpageshadow="2"
     inkscape:pageopacity="0.0"
     inkscape:pagecheckerboard="0"
     inkscape:deskcolor="#d1d1d1"
     inkscape:zoom="6.659341"
     inkscape:cx="59.840756"
     inkscape:cy="49.254123"
     inkscape:window-width="1854"
     inkscape:window-height="1011"
     inkscape:window-x="0"
     inkscape:window-y="0"
     inkscape:window-maximized="1"
     inkscape:current-layer="g1">
    <inkscape:page
       x="0"
       y="0"
       inkscape:label="1"
       id="page1"
       width="120"
       height="63"
       margin="0"
       bleed="0" />
  </sodipodi:namedview>
  <g
     id="g1"
     inkscape:groupmode="layer"
     inkscape:label="1">
    <g
       id="g3"
       clip-path="url(#clipPath3)"
       transform="matrix(0.73100619,0,0,0.57838047,13.953291,-10.701004)">
      <g
         id="g2">
        <path
           d="m 11.883,48.145 h 4.824 V 37.938 l 3.691,4.039 3.696,-4.039 v 10.175 h 4.82 V 25.477 l -8.516,9.328 -8.515,-9.297 z m 19.883,0 h 10.957 l 1.218,-4.887 H 36.648 V 39.629 H 41.5 l 1.223,-4.887 h -6.075 v -3.629 h 6.075 l 1.218,-4.886 H 31.766 Z m 31.148,0.968 V 26.227 h -4.82 v 11.211 l -12.18,-12.18 v 22.887 h 4.824 V 36.934 Z m 9.895,-0.906 c 4.039,0 7.293,-3.258 7.324,-7.297 V 26.227 H 75.281 V 40.91 c 0,1.348 -1.093,2.477 -2.472,2.477 -1.348,0 -2.473,-1.129 -2.473,-2.477 V 26.227 H 65.512 V 40.91 c 0,4.039 3.289,7.297 7.297,7.297 z"
           style="fill:#d66826;fill-opacity:1;fill-rule:evenodd;stroke:none"
           transform="scale(1.3333333)"
           clip-path="url(#clipPath1)"
           id="path2" />
      </g>
    </g>
    <path
       id="path4"
       d="m 17.14312,25.128957 c 4.165277,-1.382685 4.918359,-8.426761 6.080931,-15.125193 0.481124,-2.8037434 0.812047,-5.2044673 1.091228,-6.9203954 l -0.726143,-0.060597 c 0,0 -0.865059,3.4395844 -1.463511,6.9217256 -0.608133,3.5582528 -1.583779,8.1526148 -2.654351,7.9750268 -1.063278,-0.173577 0.05814,-3.921992 0.977371,-8.3718188 0.72166,-3.4954996 1.166819,-6.9114769 1.166819,-6.9114769 L 20.97369,2.5322562 c 0,0 -0.70026,3.2295481 -1.53988,6.6960996 -1.030365,4.2417832 -1.751957,8.4569982 -2.818643,8.2828922 -1.066948,-0.177982 0.168982,-4.312941 1.038269,-8.3354858 0.768177,-3.5380734 1.306842,-7.036252 1.306842,-7.036252 L 18.435386,2.0240667 c 0,0 -0.870556,3.5029338 -1.749787,7.0227202 -0.988444,3.9637031 -1.695266,8.1361801 -2.796277,7.9528831 -1.103017,-0.179776 0.224467,-4.273616 1.077137,-8.3255858 0.735318,-3.5134939 1.245313,-6.9298957 1.245313,-6.9298957 l -0.578125,-0.064338 c 0,0 -0.751084,3.1104523 -1.807825,6.9542466 C 12.181044,14.625751 9.3506482,21.648524 12.272401,24.298032 12.191261,25.127741 11.34406,33.571623 7.6794592,44.862955 4.2298329,55.491127 -0.46489703,60.822882 5.4126604,61.852111 l -8.645e-4,0.0037 0.089697,0.01399 c 5.9054121,0.910917 4.1286301,-5.487159 6.0375751,-16.371066 2.006679,-11.434068 5.218129,-19.43046 5.604057,-20.369778"
       style="fill:#d66826;fill-opacity:1;fill-rule:nonzero;stroke:none;stroke-width:1.04311" />
    <path
       id="path5"
       d="M 105.66967,5.6859154 C 102.34604,1.5423979 99.81627,1.4507742 98.944098,1.5770719 l -9.53e-4,-0.00374 c 0,0 -0.06774,0.00676 -0.179725,0.038611 -0.102444,0.022001 -0.153754,0.040908 -0.153754,0.040908 l 0.0034,0.00743 c -0.813424,0.2820292 -2.897747,1.5064669 -3.609451,6.6240373 -0.880428,6.3115518 0.354383,13.3452178 8.281135,15.8916338 0,0 3.57723,8.361671 6.44519,20.720049 2.55824,11.041723 1.77218,17.593887 6.36468,16.542498 l 0.0699,-0.01503 -8.6e-4,-0.0037 c 4.55976,-1.175299 0.3241,-6.503155 -3.43439,-17.251635 -4.20886,-12.032961 -5.63484,-20.921665 -5.63484,-20.921665 5.49607,-5.818351 2.68658,-12.429133 -1.42327,-17.560538"
       style="fill:#2d698c;fill-opacity:1;fill-rule:nonzero;stroke:none;stroke-width:1.01431" />
    <path
       id="path6"
       d="m 46.090629,4.4461096 c 0.283228,0.193122 0.166754,1.924464 -1.305396,3.058986 -0.999255,0.769674 -2.125803,1.414353 -2.675075,1.7133263 0.455075,-0.8113383 1.65609,-2.8394013 2.386755,-3.3804823 0,0 -1.399593,0.767984 -2.771819,3.2796983 -0.09738,-0.6818393 -0.236129,-2.4548463 0.713482,-3.5415103 1.190831,-1.36762 3.366279,-1.325955 3.652053,-1.130018"
       style="fill:#299740;fill-opacity:1;fill-rule:nonzero;stroke:none;stroke-width:0.598624"
       inkscape:transform-center-x="-0.80742793"
       inkscape:transform-center-y="1.4607429" />
    <path
       id="path6-9"
       d="m 37.716926,53.516033 c 0.253537,0.1732 0.149273,1.725942 -1.168551,2.743431 -0.894503,0.690276 -1.902955,1.268452 -2.394646,1.536584 0.407369,-0.727643 1.482482,-2.546498 2.13655,-3.031762 0,0 -1.252873,0.688761 -2.481247,2.941375 -0.08717,-0.611503 -0.211376,-2.201612 0.638686,-3.17618 1.065996,-1.22654 3.013391,-1.189174 3.269208,-1.013448"
       style="fill:#299740;fill-opacity:1;fill-rule:nonzero;stroke:none;stroke-width:0.536371"
       inkscape:transform-center-x="-0.72278565"
       inkscape:transform-center-y="1.3100572" />
    <path
       id="path7"
       d="m 82.418024,5.7005202 c -0.188311,0.288559 0.470428,2.06714 2.127425,2.813997 1.127065,0.504792 2.324835,0.842059 2.904469,0.988921 -0.662239,-0.709218 -2.368239,-2.473778 -3.185886,-2.822115 0,0 1.479187,0.383022 3.489004,2.602929 -0.133708,-0.743905 -0.579634,-2.640567 -1.763404,-3.493696 -1.487586,-1.076005 -3.382597,-0.377856 -3.571608,-0.09004"
       style="fill:#299740;fill-opacity:1;fill-rule:nonzero;stroke:none;stroke-width:0.718771" />
    <path
       id="path8"
       d="m 18.32662,60.438563 h 3.296848 v -2.741504 h 0.822419 c 3.170529,0 5.749774,-2.144031 5.749774,-4.778258 0,-2.636452 -2.579245,-4.78123 -5.749774,-4.78123 H 18.32662 Z m 3.296848,-5.44724 v -4.147268 h 0.822419 c 1.37518,0 2.474428,0.931222 2.474428,2.074746 0,1.141301 -1.119853,2.072522 -2.495032,2.072522 z m 14.558091,5.46512 c 4.077161,0 7.398198,-2.759384 7.398198,-6.149001 0,-3.393356 -3.321037,-6.134859 -7.398198,-6.134859 -4.077162,0 -7.394615,2.758636 -7.394615,6.134859 0,3.389617 3.317453,6.149001 7.394615,6.149001 z m -4.139874,-6.149001 c 0,-1.883296 1.858061,-3.428366 4.139874,-3.428366 2.281813,0 4.143457,1.54507 4.143457,3.428366 0,1.897446 -1.861644,3.442517 -4.143457,3.442517 -2.281813,0 -4.139874,-1.545071 -4.139874,-3.442517 z m 12.825455,6.131121 h 3.296848 v -2.741504 h 1.246173 l 1.501499,2.741504 h 3.824523 l -2.092782,-3.829156 c 1.266778,-0.879078 2.092782,-2.21481 2.092782,-3.690606 0,-2.636452 -2.579247,-4.78123 -5.749775,-4.78123 H 44.86714 Z m 3.296848,-5.465119 v -4.129389 h 0.82242 c 1.37518,0 2.474427,0.931222 2.474427,2.074746 0,1.071277 -0.972928,1.950346 -2.2191,2.054643 z m 10.3134,5.465119 h 3.271763 v -9.559487 h 3.296848 V 48.137571 H 55.18054 v 2.741505 h 3.296848 z m 4.752658,0 h 3.824522 l 3.170528,-5.816748 3.149923,5.816748 h 3.824523 L 70.225096,47.610877 Z m 20.517502,0 h 0.02061 c 3.594279,0 6.53009,-2.441271 6.551593,-5.44724 v -2.072522 h -6.572199 l -0.82242,2.738532 h 4.035052 c -0.378058,1.178545 -1.669922,2.074746 -3.212632,2.074746 -2.281812,0 -4.139872,-1.54507 -4.139872,-3.445507 0,-1.89669 1.85806,-3.442517 4.139872,-3.442517 0.993534,0 1.924351,0.300223 2.641952,0.809047 l 2.302422,-1.932467 c -1.30888,-0.986338 -3.040623,-1.583064 -4.944374,-1.583064 -4.07716,0 -7.394614,2.759383 -7.394614,6.149001 0,3.393356 3.317454,6.151991 7.394614,6.151991 z m 7.884657,0 h 7.39463 l 0.82512,-2.741504 h -4.923797 v -2.039726 h 3.276257 l 0.82242,-2.738532 h -4.098677 v -2.039725 h 4.098677 l 0.82512,-2.741505 h -8.21975 z"
       style="fill:#2d698c;fill-opacity:1;fill-rule:evenodd;stroke:none;stroke-width:0.816948" />
    <path
       id="path9"
       d="M 90.788856,26.155138 H 26.346601 c 0.415514,7.451471 9.676883,13.714142 22.3605,15.889036 v 2.917564 H 68.425223 V 42.044174 C 81.111972,39.86928 90.373336,33.606609 90.788856,26.155138"
       style="fill:#2d698c;fill-opacity:1;fill-rule:nonzero;stroke:none;stroke-width:0.96132" />
  </g>
</svg>
